<svg width="54" height="54" viewBox="0 0 54 54" fill="none" xmlns="http://www.w3.org/2000/svg">
<g id="img" clip-path="url(#clip0_1_1875)">
<g id="Clip path group">
<mask id="mask0_1_1875" style="mask-type:luminance" maskUnits="userSpaceOnUse" x="0" y="0" width="54" height="54">
<g id="clip0_104_86">
<path id="Vector" d="M54 0H0V54H54V0Z" fill="white"/>
</g>
</mask>
<g mask="url(#mask0_1_1875)">
<g id="Group">
<path id="Vector_2" fill-rule="evenodd" clip-rule="evenodd" d="M29.7 0C31.1912 0 32.4 1.20883 32.4 2.7V7.44487C32.4 9.8503 35.3082 11.055 37.0092 9.35404L40.3642 5.99891C41.4188 4.94451 43.1282 4.94451 44.1828 5.99891L48.0011 9.81731C49.0555 10.8717 49.0555 12.5813 48.0011 13.6357L44.6459 16.9908C42.9451 18.6917 44.1496 21.6 46.555 21.6H51.3C52.7912 21.6 54 22.8088 54 24.3V29.7C54 31.1912 52.7912 32.4 51.3 32.4H46.555C44.1496 32.4 42.9451 35.3082 44.6459 37.0092L48.0011 40.3642C49.0555 41.4188 49.0555 43.1282 48.0011 44.1828L44.1828 48.0011C43.1282 49.0555 41.4188 49.0555 40.3642 48.0011L37.0092 44.6459C35.3082 42.9451 32.4 44.1496 32.4 46.555V51.3C32.4 52.7912 31.1912 54 29.7 54H24.3C22.8088 54 21.6 52.7912 21.6 51.3V46.555C21.6 44.1496 18.6917 42.9451 16.9908 44.6459L13.6357 48.0011C12.5813 49.0555 10.8717 49.0555 9.81731 48.0011L5.99894 44.1828C4.94451 43.1282 4.94451 41.4188 5.99894 40.3642L9.35407 37.0092C11.055 35.3082 9.85033 32.4 7.44487 32.4H2.7C1.20883 32.4 0 31.1912 0 29.7V24.3C0 22.8088 1.20883 21.6 2.7 21.6H7.44487C9.8503 21.6 11.055 18.6917 9.35407 16.9908L5.99894 13.6357C4.94451 12.5812 4.94451 10.8717 5.99894 9.81731L9.81731 5.99891C10.8717 4.94451 12.5813 4.94451 13.6357 5.99891L16.9908 9.35404C18.6917 11.055 21.6 9.8503 21.6 7.44487V2.7C21.6 1.20883 22.8088 0 24.3 0H29.7ZM27 40.5C34.4558 40.5 40.5 34.4558 40.5 27C40.5 19.5442 34.4558 13.5 27 13.5C19.5442 13.5 13.5 19.5442 13.5 27C13.5 34.4558 19.5442 40.5 27 40.5Z" fill="url(#paint0_linear_1_1875)"/>
</g>
</g>
</g>
</g>
<defs>
<linearGradient id="paint0_linear_1_1875" x1="27" y1="0" x2="27" y2="54" gradientUnits="userSpaceOnUse">
<stop stop-color="#1E60DB"/>
<stop offset="1" stop-color="#BDD7F9"/>
</linearGradient>
<clipPath id="clip0_1_1875">
<rect width="54" height="54" fill="white"/>
</clipPath>
</defs>
</svg>
