<svg width="139" height="139" viewBox="0 0 139 139" fill="none" xmlns="http://www.w3.org/2000/svg">
<path d="M136.23 22.5998C136.57 22.0098 136.9 21.3898 137.24 20.8098C137.81 19.8598 138 18.9098 138 17.9698C138 15.1198 135.72 12.2798 132.31 12.2798C130.42 12.2798 128.52 13.4098 127.39 15.1198C113.36 38.8198 104.06 71.2498 98.38 90.2098C95.91 98.5498 94.2 99.4998 93.45 99.4998C92.88 99.4998 91.37 99.1198 89.66 90.7798C87.38 79.5898 85.68 66.5098 84.53 55.3198C83.59 45.6598 79.41 35.0298 68.8 35.0298C57.04 35.0298 52.87 47.1698 50.22 53.7998C47.37 61.5698 45.48 67.4498 35.99 95.8898C33.15 104.23 31.06 105.18 29.92 105.18C28.6 105.18 25.75 103.1 21.77 95.1298C14.76 81.2898 10.96 59.2998 10.96 33.3198C10.96 30.2898 8.29996 27.6298 5.26996 27.6298C2.23996 27.6298 -0.420044 30.2898 -0.420044 33.3198C-0.420044 35.8898 -0.350045 38.3798 -0.280045 40.8698C-0.370045 41.2498 -0.420044 41.6398 -0.420044 42.0298C-0.420044 69.1498 3.37995 92.2798 11.53 108.77C15.14 115.97 19.87 125.27 29.92 125.27C39.97 125.27 44.15 115.6 46.61 108.02C56.09 79.5698 57.99 74.0798 60.83 66.6798C63.86 58.5298 66.9 55.1198 68.8 55.1198C69.56 55.1198 72.21 55.8798 73.16 65.1698C74.29 76.7298 76.38 90.1998 78.66 101.76C79.99 108.58 82.64 119.58 93.45 119.58C104.26 119.58 107.29 109.15 109.38 102.33C115.07 83.3698 124.36 51.3298 137.26 29.5198C137.83 28.5698 138.02 27.6198 138.02 26.6798C138.02 25.1698 137.37 23.6698 136.25 22.5898L136.23 22.5998Z" fill="#183a68"/>
</svg>
