<svg width="194" height="60" viewBox="0 0 194 60" fill="none" xmlns="http://www.w3.org/2000/svg">
              <path fill-rule="evenodd" clip-rule="evenodd" d="M14.97 60H19.4625V36H14.97V60ZM31.4381 59.64H35.4619V44.4975L52.3987 60V36.36H48.3862V51.2438L31.4381 36V59.64ZM61.5844 53.8275C63.7744 55.5337 66.4031 56.52 69.2212 56.52C71.9662 56.52 73.8919 55.575 73.8919 53.4881C73.8919 51.6694 72.6637 50.9569 70.5131 50.16L67.0312 48.9506C63.8212 47.8106 61.38 46.1456 61.38 42.3187C61.38 38.2256 65.0756 36 69.495 36C72.2025 36 74.67 36.6806 76.5975 37.8862V41.9456C74.5931 40.4644 72.3994 39.4444 69.5812 39.4444C67.155 39.4444 65.3419 40.35 65.3419 42.2381C65.3419 43.9444 66.48 44.6269 68.4844 45.3131L72.3637 46.6744C76.1231 47.9963 77.8481 50.0456 77.8481 53.4169C77.8481 57.6581 74.1169 60 69.2212 60C66.0037 60 63.2681 59.1 61.5844 57.9637V53.8275ZM88.3294 60H92.82V36H88.3294V60ZM113.887 56.3681C118.95 56.3681 121.656 53.1206 121.656 47.9944C121.656 42.8306 118.948 39.5944 113.887 39.5944H108.881V56.3681H113.887ZM104.794 36H114.037C121.153 36 125.754 40.6875 125.754 47.9944C125.754 55.3069 121.153 60 114.037 60H104.794V36ZM148.213 36V39.5944H137.344V45.3694H147.092V48.9225H137.342V56.3681H148.213V60H133.241V36H148.213ZM164.154 46.8675H168.611C171.249 46.8675 172.736 45.42 172.736 43.1944C172.736 40.9688 171.249 39.5194 168.611 39.5194H164.154V46.8675ZM164.154 50.2612V60H160.189V36H168.686C173.531 36 176.666 38.4956 176.666 43.1944C176.666 47.2125 174.926 49.5206 171.219 50.1131L179.651 60H175.14L166.976 50.2631H164.156L164.154 50.2612ZM13.4006 12.3563C15.1575 11.7131 16.5262 9.78375 16.5262 7.13062C16.5262 2.70937 13.4006 0.418125 8.4 0.418125H0V25.0987H9.18C14.1806 25.0987 17.3062 22.6462 17.3062 18.0244C17.3062 15.4106 15.6656 13.1194 13.4006 12.3563ZM3.945 10.7888V4.03688H8.3625C11.1375 4.03688 12.6206 5.04187 12.6206 7.3725C12.6206 9.70312 11.1356 10.7888 8.3625 10.7888H3.945ZM3.945 14.2463H9.10125C11.8387 14.2463 13.3219 15.6113 13.3219 17.8631C13.3219 20.0738 11.8369 21.4819 9.10312 21.4819H3.94687V14.2444L3.945 14.2463ZM35.6344 25.5C41.3775 25.5 45.2456 22.0425 45.2456 15.2906V0.418125H41.1825V14.8069C41.1825 19.5506 39.2287 21.7631 35.6344 21.7631C32.04 21.7631 30.0881 19.5506 30.0881 14.8069V0.418125H26.025V15.2494C26.025 22.0425 29.9306 25.5 35.6344 25.5ZM54.8119 23.3288C56.4919 24.5363 59.2275 25.5 62.43 25.5C67.3144 25.5 71.025 23.0063 71.025 18.5063C71.025 14.9288 69.3075 12.7575 65.5556 11.3512L61.6894 9.90375C59.6962 9.18188 58.5637 8.45813 58.5637 6.64875C58.5637 4.63875 60.36 3.675 62.7825 3.675C65.595 3.675 67.7831 4.75875 69.7762 6.32812V2.025C67.8619 0.740625 65.4 0.016875 62.7037 0.016875C58.29 0.016875 54.6169 2.38875 54.6169 6.72937C54.6169 10.7887 57.0394 12.5569 60.2419 13.7625L63.72 15.0487C65.8688 15.8925 67.08 16.6575 67.08 18.5869C67.08 20.7975 65.1656 21.8025 62.43 21.8025C59.6175 21.8025 57 20.7563 54.8119 18.9487V23.3288ZM85.5431 0.418125H81.4819V25.0969H85.5431V0.418125ZM97.1344 25.0669H101.049V9.01125L117.527 25.4494V0.380625H113.623V16.1625L97.1344 0V25.0669ZM142.916 0.42375V4.11938H132.367V10.0594H141.827V13.7137H132.367V21.3694H142.916V25.1044H128.385V0.42375H142.916ZM152.376 23.3119C154.056 24.5194 156.789 25.4831 159.994 25.4831C164.876 25.4831 168.589 22.9913 168.589 18.4894C168.589 14.9119 166.869 12.7425 163.119 11.3344L159.251 9.88875C157.258 9.165 156.126 8.44125 156.126 6.63188C156.126 4.62187 157.922 3.65812 160.344 3.65812C163.157 3.65812 165.345 4.74375 167.338 6.31125V2.01C165.424 0.72375 162.962 0 160.266 0C155.852 0 152.179 2.37187 152.179 6.7125C152.179 10.7719 154.601 12.54 157.804 13.7456L161.282 15.0319C163.431 15.8756 164.642 16.6406 164.642 18.57C164.642 20.7806 162.729 21.7856 159.992 21.7856C157.179 21.7856 154.562 20.7413 152.376 18.9319V23.3119ZM176.912 23.3119C178.592 24.5194 181.327 25.4831 184.53 25.4831C189.414 25.4831 193.125 22.9913 193.125 18.4894C193.125 14.9119 191.406 12.7425 187.656 11.3344L183.787 9.88875C181.796 9.165 180.662 8.44125 180.662 6.63188C180.662 4.62187 182.46 3.65812 184.881 3.65812C187.693 3.65812 189.883 4.74375 191.874 6.31125V2.01C189.962 0.72375 187.5 0 184.804 0C180.388 0 176.717 2.37187 176.717 6.7125C176.717 10.7719 179.139 12.54 182.342 13.7456L185.82 15.0319C187.969 15.8756 189.18 16.6406 189.18 18.57C189.18 20.7806 187.266 21.7856 184.53 21.7856C181.717 21.7856 179.1 20.7413 176.912 18.9319V23.3119Z" fill="#020915"/>
            </svg>