<svg width="149" height="16" viewBox="0 0 149 16" fill="none" xmlns="http://www.w3.org/2000/svg">
<g clip-path="url(#clip0_22_99)">
<path d="M35.8435 3.82207V0.222168H48.0225V3.82207H35.8435ZM40.0976 15.7774V0.222168H43.7685V15.7774H40.0976Z" fill="#131313"/>
<path d="M48.7002 15.2446C47.8436 14.7409 47.1633 14.0487 46.6591 13.1665C46.155 12.2851 45.9033 11.3187 45.9033 10.2667C45.9033 9.21478 46.1515 8.23692 46.6487 7.37778C47.1451 6.51864 47.8177 5.84082 48.6673 5.34434C49.5169 4.84785 50.4524 4.59961 51.4747 4.59961C52.4249 4.59961 53.3024 4.83706 54.1093 5.31052C54.9155 5.7847 55.5595 6.42942 56.042 7.24394C56.5244 8.05919 56.7657 8.97014 56.7657 9.97751C56.7657 10.3034 56.744 10.733 56.7006 11.2662H47.6744V8.97733H53.1381C53.1094 8.68088 53.0046 8.42544 52.8249 8.21102C52.6445 7.99659 52.4256 7.82606 52.1662 7.70014C51.9068 7.57422 51.6187 7.5109 51.3027 7.5109C50.8419 7.5109 50.4461 7.61451 50.1147 7.82174C49.7833 8.02969 49.521 8.35924 49.3267 8.8104C49.1323 9.26227 49.0351 9.83647 49.0351 10.5322C49.0351 11.0359 49.1393 11.477 49.3483 11.8548C49.5567 12.2325 49.8448 12.5254 50.2119 12.7326C50.579 12.9406 50.9929 13.0435 51.4537 13.0435C51.9431 13.0435 52.3354 12.9514 52.6305 12.7657C52.9255 12.5808 53.1164 12.3325 53.2024 12.021H56.6146C56.4419 13.2356 55.8909 14.2026 54.9631 14.9208C54.0345 15.6396 52.8934 15.9986 51.5404 15.9986C50.5042 15.9986 49.5574 15.7468 48.7009 15.2431L48.7002 15.2446Z" fill="#131313"/>
<path d="M60.1499 15.2559C59.308 14.7594 58.6452 14.078 58.1634 13.2117C57.6809 12.3453 57.4397 11.3862 57.4397 10.3342C57.4397 9.28219 57.6802 8.27483 58.1634 7.40058C58.6459 6.52633 59.308 5.84132 60.1499 5.34483C60.9924 4.84834 61.9315 4.6001 62.9677 4.6001C63.8746 4.6001 64.7172 4.80013 65.494 5.2002C66.2708 5.60027 66.905 6.14856 67.3945 6.84437C67.8839 7.54089 68.172 8.31872 68.258 9.17786H64.7382C64.6522 8.83751 64.4431 8.56337 64.1117 8.35542C63.7802 8.14819 63.3991 8.04457 62.967 8.04457C62.5783 8.04457 62.2182 8.14099 61.8874 8.33311C61.556 8.52595 61.3008 8.7965 61.1211 9.14404C60.9407 9.4923 60.8512 9.88877 60.8512 10.3328C60.8512 10.748 60.9407 11.1293 61.1211 11.4769C61.3008 11.8251 61.556 12.0957 61.8874 12.2878C62.2182 12.4806 62.5783 12.5763 62.967 12.5763C63.4131 12.5763 63.8019 12.4619 64.1333 12.2317C64.4641 12.0021 64.6731 11.7093 64.7598 11.3538H68.2797C68.2077 12.2425 67.9308 13.039 67.4483 13.7427C66.9659 14.4464 66.3289 14.9983 65.5374 15.3984C64.7451 15.7985 63.8886 15.9985 62.9677 15.9985C61.9315 15.9985 60.9917 15.7502 60.1499 15.2538V15.2559Z" fill="#131313"/>
<path d="M72.4909 0.222168V15.7774H69.0361V0.222168H72.4909ZM75.7843 9.11074C75.6472 8.7999 75.4458 8.56605 75.1794 8.41062C74.913 8.2552 74.5998 8.17749 74.2404 8.17749C73.881 8.17749 73.56 8.27391 73.2363 8.46603C72.9126 8.65887 72.6567 8.91791 72.47 9.24386V6.04403C72.7434 5.59935 73.1209 5.24749 73.6034 4.98845C74.0859 4.72942 74.5998 4.5999 75.1473 4.5999C76.0395 4.5999 76.81 4.79993 77.4582 5.2C78.1064 5.60007 78.6028 6.17787 78.9482 6.93339C79.2936 7.68892 79.4664 8.58547 79.4664 9.62234V15.7781H75.9898V10.2225C75.9898 9.79288 75.9213 9.42231 75.785 9.11146L75.7843 9.11074Z" fill="#131313"/>
<path d="M83.98 14.9666C82.8067 14.278 81.8816 13.3224 81.2048 12.0999C80.5279 10.8774 80.1895 9.51098 80.1895 7.99993C80.1895 6.48888 80.5279 5.14405 81.2048 3.92225C81.8809 2.69974 82.806 1.74131 83.98 1.04478C85.1533 0.348261 86.4664 0 87.9208 0C89.1297 0 90.2674 0.251842 91.333 0.755525C92.3979 1.25921 93.2796 1.95933 93.9781 2.85517C94.676 3.75172 95.0829 4.74038 95.1983 5.82186H91.1386C91.0232 5.4074 90.8107 5.03324 90.5016 4.69937C90.1919 4.36622 89.8108 4.11078 89.357 3.93305C88.9032 3.75532 88.4249 3.6661 87.9208 3.6661C87.1719 3.6661 86.4958 3.85534 85.891 4.2331C85.2861 4.61086 84.8114 5.12966 84.4659 5.78876C84.1205 6.44787 83.9478 7.1854 83.9478 7.99993C83.9478 8.81446 84.1205 9.55559 84.4659 10.2219C84.8114 10.8882 85.2868 11.407 85.891 11.7776C86.4958 12.1481 87.1719 12.333 87.9208 12.333C88.4389 12.333 88.9214 12.233 89.3675 12.033C89.8136 11.833 90.1954 11.5552 90.5121 11.1998C90.8289 10.8443 91.0442 10.437 91.1603 9.97725H95.2416C95.0689 11.148 94.6403 12.1884 93.9565 13.0994C93.2726 14.0103 92.4049 14.7219 91.3547 15.2328C90.3037 15.7437 89.1591 15.9991 87.9215 15.9991C86.4671 15.9991 85.1533 15.6552 83.98 14.9666Z" fill="#131313"/>
<path d="M102.907 8.24492H99.5816V15.7786H96.1267V4.82275H102.907V8.24492Z" fill="#131313"/>
<path d="M113.386 13.4336C112.947 14.2409 112.342 14.8705 111.573 15.3224C110.802 15.7743 109.928 16.0002 108.949 16.0002C107.97 16.0002 107.07 15.7743 106.293 15.3224C105.515 14.8705 104.907 14.2409 104.468 13.4336C104.029 12.6263 103.809 11.7117 103.809 10.6892V4.82275H107.264V10.6892C107.264 11.267 107.415 11.7261 107.718 12.0672C108.02 12.4082 108.43 12.5781 108.948 12.5781C109.466 12.5781 109.855 12.4082 110.157 12.0672C110.459 11.7268 110.611 11.267 110.611 10.6892V4.82275H114.045V10.6892C114.045 11.7117 113.825 12.6263 113.386 13.4336Z" fill="#131313"/>
<path d="M118.552 15.7776H115.098V4.82244H118.552V15.7776ZM121.867 9.11094C121.73 8.8001 121.529 8.56624 121.263 8.41082C120.996 8.2554 120.683 8.17769 120.324 8.17769C119.964 8.17769 119.625 8.27411 119.309 8.46623C118.992 8.65907 118.733 8.9181 118.531 9.24406V6.04423C118.819 5.59955 119.204 5.24769 119.687 4.98865C120.169 4.72962 120.683 4.6001 121.23 4.6001C122.123 4.6001 122.893 4.80013 123.541 5.2002C124.189 5.60027 124.686 6.17806 125.031 6.93359C125.377 7.68912 125.549 8.58567 125.549 9.62254V15.7783H122.073V10.2227C122.073 9.79307 122.004 9.42251 121.868 9.11166L121.867 9.11094Z" fill="#131313"/>
<path d="M129.036 15.2559C128.195 14.7594 127.532 14.078 127.05 13.2117C126.568 12.3453 126.326 11.3862 126.326 10.3342C126.326 9.28219 126.567 8.27483 127.05 7.40058C127.532 6.52633 128.195 5.84132 129.036 5.34483C129.879 4.84834 130.818 4.6001 131.854 4.6001C132.761 4.6001 133.604 4.80013 134.381 5.2002C135.157 5.60027 135.792 6.14856 136.281 6.84437C136.771 7.54089 137.059 8.31872 137.145 9.17786H133.625C133.539 8.83751 133.33 8.56337 132.998 8.35542C132.667 8.14819 132.286 8.04457 131.854 8.04457C131.465 8.04457 131.105 8.14099 130.774 8.33311C130.443 8.52595 130.187 8.7965 130.008 9.14404C129.827 9.4923 129.738 9.88877 129.738 10.3328C129.738 10.748 129.827 11.1293 130.008 11.4769C130.187 11.8251 130.443 12.0957 130.774 12.2878C131.105 12.4806 131.465 12.5763 131.854 12.5763C132.3 12.5763 132.688 12.4619 133.02 12.2317C133.351 12.0021 133.56 11.7093 133.646 11.3538H137.166C137.094 12.2425 136.817 13.039 136.335 13.7427C135.852 14.4464 135.215 14.9983 134.424 15.3984C133.632 15.7985 132.775 15.9985 131.854 15.9985C130.818 15.9985 129.878 15.7502 129.036 15.2538V15.2559Z" fill="#131313"/>
<path d="M141.389 0.222168V15.7774H137.934V0.222168H141.389ZM144.682 9.11074C144.545 8.7999 144.344 8.56605 144.077 8.41062C143.811 8.2552 143.498 8.17749 143.138 8.17749C142.779 8.17749 142.458 8.27391 142.134 8.46603C141.81 8.65887 141.555 8.91791 141.368 9.24386V6.04403C141.641 5.59935 142.019 5.24749 142.501 4.98845C142.984 4.72942 143.498 4.5999 144.045 4.5999C144.937 4.5999 145.708 4.79993 146.356 5.2C147.004 5.60007 147.501 6.17787 147.846 6.93339C148.192 7.68892 148.364 8.58547 148.364 9.62234V15.7781H144.888V10.2225C144.888 9.79288 144.819 9.42231 144.683 9.11146L144.682 9.11074Z" fill="#131313"/>
<path d="M15.6989 0.222168V5.40291H10.6645V15.778H5.63009V5.40291H0.595703V0.222168H15.6989Z" fill="#131313"/>
<path d="M30.8022 10.5977V15.7785H15.699V5.40625H20.7334V10.5977H30.8022Z" fill="#131313"/>
<path d="M30.8021 0.222168H20.7334V5.40291H30.8021V0.222168Z" fill="#131313"/>
</g>
<defs>
<clipPath id="clip0_22_99">
<rect width="149" height="16" fill="white"/>
</clipPath>
</defs>
</svg>
