<svg width="250" height="186" viewBox="0 0 250 186" fill="none" xmlns="http://www.w3.org/2000/svg">
<path d="M249.89 79.7198V72.5298C246.33 71.3598 242.53 70.7098 238.58 70.7098C234.58 70.7098 230.73 71.3798 227.13 72.5798V79.8098C230.65 78.3098 234.51 77.4498 238.58 77.4498C242.58 77.4498 246.4 78.2598 249.89 79.7198ZM249.89 89.9398V85.6498C246.51 83.8498 242.66 82.8198 238.58 82.8198C234.43 82.8198 230.54 83.8798 227.13 85.7298V90.0198C230.4 87.7998 234.34 86.4998 238.58 86.4998C242.76 86.5098 246.65 87.7798 249.89 89.9398ZM238.58 67.6298C234.6 67.6298 230.76 68.2298 227.13 69.3398V58.0298C227.13 54.1698 226.34 51.3298 224.77 49.5098C223.2 47.6898 220.53 46.7798 216.76 46.7798C212.09 46.7798 208.79 48.2598 206.86 51.2198V103.48H184.16V0.0297852H206.86V38.4198C211.71 32.3098 217.9 29.2598 225.45 29.2598C233.48 29.2598 239.55 31.6398 243.63 36.3998C247.72 41.1598 249.8 48.1898 249.89 57.4798V69.2898C246.3 68.2198 242.51 67.6298 238.58 67.6298ZM149.94 87.3298C153.13 87.3298 155.59 86.4698 157.35 84.7398C159.1 83.0098 159.95 80.5998 159.91 77.4998H181.19C181.19 85.4898 178.33 92.0498 172.6 97.1598C166.88 102.28 159.5 104.84 150.48 104.84C139.88 104.84 131.53 101.52 125.42 94.8698C119.31 88.2198 116.26 79.0198 116.26 67.2598V66.3198C116.26 58.9598 117.62 52.4598 120.34 46.8198C123.06 41.1898 126.97 36.8498 132.09 33.8198C137.21 30.7898 143.27 29.2698 150.27 29.2698C159.74 29.2698 167.26 31.8998 172.83 37.1498C178.4 42.3998 181.18 49.5198 181.18 58.4998H159.9C159.9 54.7298 158.98 51.8298 157.14 49.8098C155.3 47.7898 152.83 46.7798 149.73 46.7798C143.85 46.7798 140.41 50.5298 139.43 58.0298C139.11 60.4098 138.96 63.6898 138.96 67.8598C138.96 75.1798 139.83 80.2498 141.59 83.0798C143.34 85.9098 146.12 87.3298 149.94 87.3298ZM80.08 46.7798C73.43 46.7798 69.48 51.1798 68.23 59.9798H91.13V58.2298C91.22 54.5898 90.3 51.7798 88.37 49.7798C86.43 47.7798 83.67 46.7798 80.08 46.7798ZM82.64 104.84C71.46 104.84 62.41 101.51 55.5 94.8398C48.58 88.1698 45.13 79.4998 45.13 68.8098V66.9298C45.13 59.4798 46.51 52.8998 49.27 47.1998C52.03 41.4998 56.06 37.0898 61.36 33.9698C66.66 30.8498 72.95 29.2898 80.22 29.2898C90.46 29.2898 98.54 32.4698 104.46 38.8198C110.39 45.1698 113.35 54.0298 113.35 65.3898V74.2098H68.23C69.04 78.2998 70.81 81.5098 73.55 83.8398C76.29 86.1798 79.83 87.3398 84.19 87.3398C91.37 87.3398 96.99 84.8298 101.03 79.7998L111.4 92.0598C108.57 95.9598 104.56 99.0698 99.38 101.39C94.19 103.68 88.61 104.84 82.64 104.84ZM31.99 12.5098V30.6298H43.98V46.3798H31.99V79.7198C31.99 82.4598 32.49 84.3698 33.47 85.4398C34.46 86.5198 36.41 87.0598 39.33 87.0598C41.58 87.0598 43.46 86.9298 44.99 86.6598V102.89C40.9 104.19 36.64 104.84 32.19 104.84C24.38 104.84 18.61 103 14.88 99.3198C11.15 95.6398 9.29 90.0498 9.29 82.5498V46.3798H0V30.6198H9.29V12.4998H31.99V12.5098Z" fill="black"/>
<path d="M249.77 106.94C249.77 100.76 244.75 95.7397 238.57 95.7397C232.39 95.7397 227.37 100.76 227.37 106.94C227.37 113.11 232.39 118.14 238.57 118.14C244.75 118.13 249.77 113.11 249.77 106.94ZM250 128.17V123.87C246.74 126.08 242.81 127.37 238.58 127.37C234.33 127.37 230.39 126.07 227.11 123.84V128.14C230.52 130 234.42 131.06 238.58 131.06C242.71 131.05 246.6 130 250 128.17ZM250 141.31V134.12C246.48 135.6 242.63 136.43 238.58 136.43C234.51 136.43 230.64 135.57 227.11 134.06V141.3C230.72 142.51 234.57 143.17 238.58 143.17C242.57 143.16 246.4 142.51 250 141.31ZM227.11 144.53V161.88C224.9 165.61 221.19 167.48 215.97 167.48C209.89 167.48 206.85 164.35 206.85 158.1V110.64H184.1V157.53C184.1 166.26 186.16 173.4 190.28 178.05C194.4 182.71 200.46 185.04 208.48 185.04C216.67 185.04 223.18 181.96 227.99 175.79L228.66 183.69H250V144.55C246.38 145.65 242.55 146.25 238.58 146.25C234.59 146.24 230.74 145.64 227.11 144.53ZM147.27 126.84C140.61 126.84 136.65 131.25 135.39 140.07H158.35V138.31C158.44 134.66 157.52 131.84 155.58 129.84C153.64 127.84 150.87 126.84 147.27 126.84ZM149.84 185.04C138.63 185.04 129.56 181.7 122.63 175.01C115.7 168.33 112.23 159.63 112.23 148.92V147.03C112.23 139.56 113.61 132.97 116.38 127.25C119.15 121.54 123.19 117.11 128.5 113.98C133.81 110.85 140.11 109.04 147.41 109.04C157.67 109.04 165.77 112.47 171.72 118.84C177.66 125.21 180.63 134.09 180.63 145.47V154.31H135.39C136.2 158.41 137.98 161.63 140.72 163.96C143.47 166.3 147.02 167.47 151.39 167.47C158.59 167.47 164.22 164.95 168.27 159.91L178.67 172.2C175.83 176.12 171.82 179.24 166.62 181.55C161.42 183.88 155.83 185.04 149.84 185.04Z" fill="black"/>
</svg>
