<svg xmlns="http://www.w3.org/2000/svg" width="36" height="36" viewBox="0 0 36 36" fill="none">
  <g clip-path="url(#clip0_1_1865)">
    <mask id="mask0_1_1865" style="mask-type:luminance" maskUnits="userSpaceOnUse" x="0" y="0" width="36" height="36">
      <path d="M36 0H0V36H36V0Z" fill="white"/>
    </mask>
    <g mask="url(#mask0_1_1865)">
      <path fill-rule="evenodd" clip-rule="evenodd" d="M9 18C13.9706 18 18 13.9706 18 9C18 13.9706 22.0295 18 27 18C22.0295 18 18 22.0295 18 27C18 22.0295 13.9706 18 9 18ZM9 18C4.02944 18 0 22.0295 0 27C0 31.9705 4.02944 36 9 36C13.9706 36 18 31.9705 18 27C18 31.9705 22.0295 36 27 36C31.9705 36 36 31.9705 36 27C36 22.0295 31.9705 18 27 18C31.9705 18 36 13.9706 36 9C36 4.02944 31.9705 0 27 0C22.0295 0 18 4.02944 18 9C18 4.02944 13.9706 0 9 0C4.02944 0 0 4.02944 0 9C0 13.9706 4.02944 18 9 18Z" fill="url(#paint0_linear_1_1865)"/>
    </g>
  </g>
  <defs>
    <linearGradient id="paint0_linear_1_1865" x1="2.52" y1="4.68" x2="32.22" y2="32.31" gradientUnits="userSpaceOnUse">
      <stop stop-color="#1E60DB"/>
      <stop offset="1" stop-color="#BDD7F9"/>
    </linearGradient>
    <clipPath id="clip0_1_1865">
      <rect width="36" height="36" fill="white"/>
    </clipPath>
  </defs>
</svg>