<svg xmlns="http://www.w3.org/2000/svg" width="36" height="36" viewBox="0 0 36 36" fill="none">
  <g clip-path="url(#clip0_1_1876)">
    <mask id="mask0_1_1876" style="mask-type:luminance" maskUnits="userSpaceOnUse" x="0" y="0" width="36" height="36">
      <path d="M36 0H0V36H36V0Z" fill="white"/>
    </mask>
    <g mask="url(#mask0_1_1876)">
      <path fill-rule="evenodd" clip-rule="evenodd" d="M0 0C0 9.94113 8.05887 18 18 18C8.05887 18 0 26.059 0 36H2.16C2.16 27.2518 9.2518 20.16 18 20.16C26.7482 20.16 33.84 27.2518 33.84 36H36C36 26.059 27.941 18 18 18C27.941 18 36 9.94113 36 0H33.84C33.84 8.7482 26.7482 15.84 18 15.84C9.2518 15.84 2.16 8.7482 2.16 0H0ZM4.32 0C4.32 7.55525 10.4448 13.68 18 13.68C25.5553 13.68 31.68 7.55525 31.68 0H29.52C29.52 6.36232 24.3623 11.52 18 11.52C11.6377 11.52 6.48 6.36232 6.48 0H4.32ZM8.64 0C8.64 5.16938 12.8306 9.36 18 9.36C23.1694 9.36 27.36 5.16938 27.36 0H25.2C25.2 3.97645 21.9764 7.2 18 7.2C14.0235 7.2 10.8 3.97645 10.8 0H8.64ZM18 22.32C25.5553 22.32 31.68 28.4447 31.68 36H29.52C29.52 29.6377 24.3623 24.48 18 24.48C11.6377 24.48 6.48 29.6377 6.48 36H4.32C4.32 28.4447 10.4448 22.32 18 22.32ZM18 26.64C23.1694 26.64 27.36 30.8306 27.36 36H25.2C25.2 32.0236 21.9764 28.8 18 28.8C14.0235 28.8 10.8 32.0236 10.8 36H8.64C8.64 30.8306 12.8306 26.64 18 26.64Z" fill="url(#paint0_linear_1_1876)"/>
    </g>
  </g>
  <defs>
    <linearGradient id="paint0_linear_1_1876" x1="18" y1="0" x2="18" y2="36" gradientUnits="userSpaceOnUse">
      <stop stop-color="#1E60DB"/>
      <stop offset="1" stop-color="#BDD7F9"/>
    </linearGradient>
    <clipPath id="clip0_1_1876">
      <rect width="36" height="36" fill="white"/>
    </clipPath>
  </defs>
</svg>