<svg xmlns="http://www.w3.org/2000/svg" width="36" height="36" viewBox="0 0 36 36" fill="none">
  <g clip-path="url(#clip0_1_1843)">
    <mask id="mask0_1_1843" style="mask-type:luminance" maskUnits="userSpaceOnUse" x="0" y="0" width="36" height="36">
      <path d="M36 0H0V36H36V0Z" fill="white"/>
    </mask>
    <g mask="url(#mask0_1_1843)">
      <path fill-rule="evenodd" clip-rule="evenodd" d="M18 0C13.0294 0 9 4.02944 9 9C4.02944 9 3.93403e-07 13.0294 0 18C0 22.9705 4.02944 27 9 27C9 31.9705 13.0294 36 18 36C22.9705 36 27 31.9705 27 27C31.9705 27 36 22.9705 36 18C36 13.0294 31.9705 9 27 9C27 4.02944 22.9705 0 18 0ZM25.2551 10.7449C25.2551 6.73801 22.0068 3.4898 18 3.4898C13.9931 3.4898 10.7449 6.73801 10.7449 10.7449C6.73801 10.7449 3.4898 13.9931 3.4898 18C3.4898 22.0068 6.73801 25.2551 10.7449 25.2551C10.7449 29.2621 13.9931 32.5102 18 32.5102C22.0068 32.5102 25.2551 29.2621 25.2551 25.2551C29.2621 25.2551 32.5102 22.0068 32.5102 18C32.5102 13.9931 29.2621 10.7449 25.2551 10.7449ZM12.4898 12.4898C12.4898 9.4466 14.9568 6.97959 18 6.97959C21.0433 6.97959 23.5102 9.4466 23.5102 12.4898C26.5534 12.4898 29.0203 14.9568 29.0203 18C29.0203 21.0433 26.5534 23.5102 23.5102 23.5102C23.5102 26.5534 21.0433 29.0203 18 29.0203C14.9568 29.0203 12.4898 26.5534 12.4898 23.5102C9.4466 23.5102 6.97959 21.0433 6.97959 18C6.97959 14.9568 9.4466 12.4898 12.4898 12.4898Z" fill="url(#paint0_linear_1_1843)"/>
    </g>
  </g>
  <defs>
    <linearGradient id="paint0_linear_1_1843" x1="2.52" y1="4.68" x2="32.22" y2="32.31" gradientUnits="userSpaceOnUse">
      <stop stop-color="#1E60DB"/>
      <stop offset="1" stop-color="#BDD7F9"/>
    </linearGradient>
    <clipPath id="clip0_1_1843">
      <rect width="36" height="36" fill="white"/>
    </clipPath>
  </defs>
</svg>