<svg xmlns="http://www.w3.org/2000/svg" width="170" height="55" viewBox="0 0 170 55" fill="none"> <path d="M109.946 29.395C110.254 24.72 109.242 20.997 106.998 18.581C105.018 16.454 102.159 15.368 98.507 15.368C91.336 15.368 86.497 20.221 86.497 27.423C86.497 34.669 91.27 39.345 98.683 39.345C102.775 39.345 106.228 37.905 108.648 35.201L108.67 35.179L105.128 31.567L105.106 31.589C103.523 33.184 101.433 34.071 99.233 34.071C96.351 34.071 94.129 32.409 93.315 29.595L93.272 29.417H109.968L109.946 29.395V29.395ZM93.118 25.406L93.14 25.229C93.733 22.171 95.735 20.354 98.529 20.354C101.477 20.354 103.479 22.282 103.633 25.251V25.406H93.118ZM55.787 22.26C56.315 22.26 57.085 22.281 57.943 22.459V15.545C57.459 15.412 56.799 15.345 56.183 15.345C54.115 15.345 51.299 16.232 50.156 18.714L49.892 19.312V15.567H43.16V39.145H50.112V28.863C50.112 22.902 54.093 22.259 55.787 22.259V22.26ZM67.272 15.567H60.32V39.145H67.272V15.567V15.567ZM63.75 4C61.507 4 59.703 5.861 59.703 8.122C59.703 10.382 61.529 12.243 63.751 12.243C66.039 12.243 67.908 10.382 67.908 8.122C67.908 5.862 66.038 4 63.751 4H63.75ZM81.5 39.588C83.568 39.588 84.734 39.145 85.13 38.968V33.184C84.668 33.273 84.03 33.384 83.37 33.384C82.073 33.384 80.599 33.074 80.599 30.747V21.66H85.219V15.566H80.599V8.61H74.395V11.535C74.395 14.017 72.943 15.568 70.59 15.568H69.512V21.662H73.713V32.032C73.713 36.708 76.705 39.589 81.501 39.589L81.5 39.588ZM29.235 39.366C35.791 39.366 41.136 33.982 41.136 27.378C41.136 20.774 35.791 15.39 29.236 15.39C23.098 15.39 18.324 20.22 17.334 27.422C16.983 30.037 14.804 32.852 11.901 32.852C8.909 32.852 6.467 30.392 6.467 27.378C6.467 24.364 8.909 21.905 11.901 21.905C12.715 21.905 13.881 22.148 14.739 22.725C15.399 20.642 16.389 18.802 17.95 17.074C16.1231 15.9751 14.032 15.393 11.9 15.39C5.347 15.39 0 20.774 0 27.378C0 33.982 5.346 39.366 11.9 39.366C15.135 39.366 18.148 38.103 20.392 35.821L20.59 35.621L20.788 35.821C23.054 38.103 26.046 39.366 29.235 39.366V39.366ZM29.235 21.905C32.227 21.905 34.669 24.365 34.669 27.378C34.669 30.392 32.227 32.852 29.235 32.852C26.244 32.852 23.802 30.392 23.802 27.378C23.802 24.364 26.222 21.905 29.235 21.905V21.905Z" fill="#656565"/> <path fill-rule="evenodd" clip-rule="evenodd" d="M142.5 55C157.688 55 170 42.688 170 27.5C170 12.312 157.688 0 142.5 0C127.312 0 115 12.312 115 27.5C115 42.688 127.312 55 142.5 55Z" fill="#656565"/> <path fill-rule="evenodd" clip-rule="evenodd" d="M163.012 27.498C163.012 20.89 157.636 15.513 151.027 15.513C144.418 15.513 139.975 20.766 139.042 27.506C138.73 29.753 136.772 32.572 133.972 32.572C133.198 32.5718 132.435 32.3944 131.74 32.0534C131.045 31.7125 130.438 31.217 129.964 30.605C129.49 29.9929 129.163 29.2806 129.007 28.5225C128.851 27.7644 128.871 26.9808 129.065 26.2316C129.259 25.4823 129.622 24.7875 130.126 24.2002C130.63 23.6129 131.262 23.1488 131.973 22.8434C132.684 22.538 133.456 22.3995 134.228 22.4384C135.001 22.4774 135.755 22.6927 136.432 23.068C137.099 20.8324 138.276 18.782 139.87 17.078C138.074 16.0521 136.041 15.5127 133.972 15.513C127.363 15.513 121.987 20.89 121.987 27.498C121.987 34.107 127.363 39.488 133.972 39.488C137.323 39.488 140.357 38.144 142.534 35.938C143.645 37.0614 144.967 37.9531 146.425 38.5617C147.883 39.1702 149.447 39.4833 151.027 39.483C157.636 39.483 163.012 34.107 163.012 27.498V27.498ZM170 27.501C170 42.688 157.687 55 142.5 55C127.313 55 115 42.688 115 27.5C115 12.312 127.313 0 142.5 0C157.687 0 170 12.312 170 27.5V27.501ZM156.098 27.498C156.098 28.8428 155.564 30.1325 154.613 31.0834C153.662 32.0343 152.372 32.5685 151.027 32.5685C149.683 32.5685 148.393 32.0343 147.442 31.0834C146.491 30.1325 145.957 28.8428 145.957 27.498C145.957 26.1532 146.491 24.8635 147.442 23.9126C148.393 22.9617 149.683 22.4275 151.027 22.4275C152.372 22.4275 153.662 22.9617 154.613 23.9126C155.564 24.8635 156.098 26.1532 156.098 27.498V27.498Z" fill="#000000"/> </svg>