<svg xmlns="http://www.w3.org/2000/svg" width="165" height="42" viewBox="0 0 165 42" fill="none">
              <g id="Subsocial Logo v2">
                <g id="subsocial">
                  <path d="M51.144 23.3264C52.1122 23.3264 52.8183 23.212 53.2621 22.9832C53.7059 22.7336 53.9278 22.3176 53.9278 21.7352C53.9278 21.1944 53.6857 20.7472 53.2016 20.3936C52.7376 20.04 51.961 19.6552 50.8716 19.2392C50.2059 18.9896 49.5907 18.7296 49.0259 18.4592C48.4812 18.168 48.0071 17.8352 47.6037 17.4608C47.2002 17.0864 46.8775 16.6392 46.6354 16.1192C46.4135 15.5784 46.3026 14.9232 46.3026 14.1536C46.3026 12.656 46.8371 11.4808 47.9063 10.628C48.9754 9.75439 50.4278 9.31759 52.2635 9.31759C53.1915 9.31759 54.0791 9.41119 54.9263 9.59839C55.7736 9.76479 56.409 9.93119 56.8326 10.0976L56.1669 13.1552C55.7635 12.968 55.2491 12.8016 54.6237 12.656C53.9984 12.4896 53.2722 12.4064 52.4451 12.4064C51.6987 12.4064 51.0935 12.5416 50.6296 12.812C50.1656 13.0616 49.9336 13.4568 49.9336 13.9976C49.9336 14.268 49.974 14.5072 50.0547 14.7152C50.1555 14.9232 50.3169 15.1208 50.5388 15.308C50.7607 15.4744 51.0532 15.6512 51.4163 15.8384C51.7794 16.0048 52.2232 16.1816 52.7477 16.3688C53.6151 16.7016 54.3514 17.0344 54.9566 17.3672C55.5617 17.6792 56.056 18.0432 56.4392 18.4592C56.8427 18.8544 57.1352 19.312 57.3167 19.832C57.4983 20.352 57.5891 20.976 57.5891 21.704C57.5891 23.264 57.0242 24.4496 55.8946 25.2608C54.7851 26.0512 53.1915 26.4464 51.1137 26.4464C49.7218 26.4464 48.6022 26.3216 47.755 26.072C46.9077 25.8432 46.3127 25.656 45.9697 25.5104L46.6052 22.3592C47.1498 22.588 47.7953 22.8064 48.5417 23.0144C49.3083 23.2224 50.1757 23.3264 51.144 23.3264Z" fill="#000000"/>
                  <path d="M73.2338 25.5416C72.5277 25.7288 71.6099 25.916 70.4802 26.1032C69.3506 26.3112 68.11 26.4152 66.7584 26.4152C65.4875 26.4152 64.4184 26.228 63.551 25.8536C62.7037 25.4792 62.0179 24.9592 61.4934 24.2936C60.9891 23.628 60.626 22.8376 60.4041 21.9224C60.1822 20.9864 60.0712 19.9672 60.0712 18.8648V9.72319H63.7325V18.272C63.7325 20.0192 63.9746 21.2672 64.4587 22.016C64.9631 22.7648 65.8305 23.1392 67.061 23.1392C67.5048 23.1392 67.9688 23.1184 68.4529 23.0768C68.9572 23.0352 69.3304 22.9832 69.5725 22.9208V9.72319H73.2338V25.5416Z" fill="#000000"/>
                  <path d="M87.6372 17.8352C87.6372 16.2336 87.3245 14.9648 86.6991 14.0288C86.094 13.0928 85.1257 12.6248 83.7943 12.6248C83.1891 12.6248 82.6142 12.7184 82.0696 12.9056C81.5451 13.0928 81.1214 13.3008 80.7987 13.5296V22.9208C81.0609 22.9832 81.3938 23.0456 81.7972 23.108C82.2208 23.1496 82.7252 23.1704 83.3102 23.1704C84.6617 23.1704 85.7208 22.7024 86.4873 21.7664C87.2539 20.8096 87.6372 19.4992 87.6372 17.8352ZM91.3892 17.8976C91.3892 19.208 91.1976 20.3936 90.8143 21.4544C90.4512 22.4944 89.9166 23.3888 89.2106 24.1376C88.5247 24.8864 87.6876 25.4584 86.6991 25.8536C85.7107 26.2488 84.5911 26.4464 83.3404 26.4464C82.1301 26.4464 80.9702 26.3528 79.8607 26.1656C78.7714 25.9784 77.8636 25.7704 77.1374 25.5416V2.45359L80.7987 1.82959V10.2848C81.2223 10.056 81.7367 9.84799 82.3419 9.66079C82.9672 9.47359 83.6531 9.37999 84.3995 9.37999C85.509 9.37999 86.4974 9.58799 87.3648 10.004C88.2524 10.3992 88.9887 10.9712 89.5737 11.72C90.1587 12.4688 90.6025 13.3736 90.9051 14.4344C91.2279 15.4744 91.3892 16.6288 91.3892 17.8976Z" fill="#000000"/>
                  <path d="M98.37 23.3264C99.3383 23.3264 100.044 23.212 100.488 22.9832C100.932 22.7336 101.154 22.3176 101.154 21.7352C101.154 21.1944 100.912 20.7472 100.428 20.3936C99.9636 20.04 99.187 19.6552 98.0977 19.2392C97.432 18.9896 96.8167 18.7296 96.2519 18.4592C95.7073 18.168 95.2332 17.8352 94.8298 17.4608C94.4263 17.0864 94.1035 16.6392 93.8615 16.1192C93.6396 15.5784 93.5286 14.9232 93.5286 14.1536C93.5286 12.656 94.0632 11.4808 95.1323 10.628C96.2015 9.75439 97.6539 9.31759 99.4896 9.31759C100.418 9.31759 101.305 9.41119 102.152 9.59839C103 9.76479 103.635 9.93119 104.059 10.0976L103.393 13.1552C102.99 12.968 102.475 12.8016 101.85 12.656C101.224 12.4896 100.498 12.4064 99.6711 12.4064C98.9248 12.4064 98.3196 12.5416 97.8556 12.812C97.3917 13.0616 97.1597 13.4568 97.1597 13.9976C97.1597 14.268 97.2 14.5072 97.2807 14.7152C97.3816 14.9232 97.5429 15.1208 97.7648 15.308C97.9867 15.4744 98.2792 15.6512 98.6423 15.8384C99.0055 16.0048 99.4492 16.1816 99.9737 16.3688C100.841 16.7016 101.577 17.0344 102.183 17.3672C102.788 17.6792 103.282 18.0432 103.665 18.4592C104.069 18.8544 104.361 19.312 104.543 19.832C104.724 20.352 104.815 20.976 104.815 21.704C104.815 23.264 104.25 24.4496 103.121 25.2608C102.011 26.0512 100.418 26.4464 98.3398 26.4464C96.9479 26.4464 95.8283 26.3216 94.981 26.072C94.1338 25.8432 93.5387 25.656 93.1958 25.5104L93.8312 22.3592C94.3759 22.588 95.0214 22.8064 95.7678 23.0144C96.5343 23.2224 97.4017 23.3264 98.37 23.3264Z" fill="#000000"/>
                  <path d="M121.791 17.8664C121.791 19.156 121.61 20.3312 121.247 21.392C120.883 22.4528 120.369 23.3576 119.703 24.1064C119.038 24.8552 118.231 25.4376 117.283 25.8536C116.355 26.2696 115.326 26.4776 114.196 26.4776C113.067 26.4776 112.038 26.2696 111.11 25.8536C110.182 25.4376 109.385 24.8552 108.719 24.1064C108.054 23.3576 107.529 22.4528 107.146 21.392C106.783 20.3312 106.601 19.156 106.601 17.8664C106.601 16.5768 106.783 15.412 107.146 14.372C107.529 13.3112 108.054 12.4064 108.719 11.6576C109.405 10.9088 110.212 10.3368 111.14 9.94159C112.068 9.52559 113.087 9.31759 114.196 9.31759C115.306 9.31759 116.324 9.52559 117.252 9.94159C118.201 10.3368 119.007 10.9088 119.673 11.6576C120.339 12.4064 120.853 13.3112 121.216 14.372C121.6 15.412 121.791 16.5768 121.791 17.8664ZM118.039 17.8664C118.039 16.244 117.696 14.9648 117.01 14.0288C116.345 13.072 115.407 12.5936 114.196 12.5936C112.986 12.5936 112.038 13.072 111.352 14.0288C110.686 14.9648 110.353 16.244 110.353 17.8664C110.353 19.5096 110.686 20.8096 111.352 21.7664C112.038 22.7232 112.986 23.2016 114.196 23.2016C115.407 23.2016 116.345 22.7232 117.01 21.7664C117.696 20.8096 118.039 19.5096 118.039 17.8664Z" fill="#000000"/>
                  <path d="M123.929 17.8976C123.929 16.6912 124.111 15.568 124.474 14.528C124.837 13.4672 125.351 12.552 126.017 11.7824C126.703 11.0128 127.53 10.4096 128.498 9.97279C129.467 9.53599 130.556 9.31759 131.766 9.31759C133.259 9.31759 134.671 9.59839 136.002 10.16L135.216 13.2488C134.792 13.0616 134.308 12.9056 133.763 12.7808C133.239 12.656 132.674 12.5936 132.069 12.5936C130.637 12.5936 129.547 13.0616 128.801 13.9976C128.054 14.9128 127.681 16.2128 127.681 17.8976C127.681 19.52 128.034 20.8096 128.74 21.7664C129.446 22.7024 130.637 23.1704 132.311 23.1704C132.936 23.1704 133.551 23.108 134.157 22.9832C134.762 22.8584 135.286 22.7024 135.73 22.5152L136.244 25.6352C135.841 25.8432 135.226 26.0304 134.399 26.1968C133.592 26.3632 132.755 26.4464 131.887 26.4464C130.536 26.4464 129.356 26.2384 128.347 25.8224C127.358 25.3856 126.531 24.7928 125.866 24.044C125.22 23.2744 124.736 22.3696 124.413 21.3296C124.091 20.2688 123.929 19.1248 123.929 17.8976Z" fill="#000000"/>
                  <path d="M142.014 26.0408H138.353V9.72319H142.014V26.0408ZM142.408 4.94959C142.408 5.65679 142.186 6.21839 141.742 6.63439C141.298 7.05039 140.774 7.25839 140.168 7.25839C139.543 7.25839 139.008 7.05039 138.565 6.63439C138.121 6.21839 137.899 5.65679 137.899 4.94959C137.899 4.22159 138.121 3.64959 138.565 3.23359C139.008 2.81759 139.543 2.60959 140.168 2.60959C140.774 2.60959 141.298 2.81759 141.742 3.23359C142.186 3.64959 142.408 4.22159 142.408 4.94959Z" fill="#000000"/>
                  <path d="M151.496 23.3888C152.626 23.3888 153.483 23.3264 154.068 23.2016V19.0208C153.867 18.9584 153.574 18.896 153.191 18.8336C152.807 18.7712 152.384 18.74 151.92 18.74C151.516 18.74 151.103 18.7712 150.679 18.8336C150.276 18.896 149.903 19.0104 149.56 19.1768C149.237 19.3432 148.975 19.5824 148.773 19.8944C148.571 20.1856 148.47 20.56 148.47 21.0176C148.47 21.912 148.743 22.536 149.287 22.8896C149.832 23.2224 150.568 23.3888 151.496 23.3888ZM151.194 9.31759C152.404 9.31759 153.423 9.47359 154.25 9.78559C155.077 10.0976 155.733 10.5344 156.217 11.096C156.721 11.6576 157.074 12.344 157.276 13.1552C157.498 13.9456 157.609 14.8192 157.609 15.776V25.6664C157.044 25.7912 156.186 25.9368 155.037 26.1032C153.907 26.2904 152.626 26.384 151.194 26.384C150.246 26.384 149.378 26.2904 148.591 26.1032C147.805 25.916 147.129 25.6144 146.564 25.1984C146.019 24.7824 145.586 24.2416 145.263 23.576C144.96 22.9104 144.809 22.0888 144.809 21.1112C144.809 20.1752 144.981 19.3848 145.324 18.74C145.687 18.0952 146.171 17.5752 146.776 17.18C147.381 16.764 148.077 16.4728 148.864 16.3064C149.671 16.1192 150.508 16.0256 151.375 16.0256C151.779 16.0256 152.202 16.0568 152.646 16.1192C153.09 16.1608 153.564 16.244 154.068 16.3688V15.7448C154.068 15.308 154.018 14.892 153.917 14.4968C153.816 14.1016 153.635 13.7584 153.372 13.4672C153.13 13.1552 152.797 12.916 152.374 12.7496C151.97 12.5832 151.456 12.5 150.831 12.5C149.983 12.5 149.207 12.5624 148.501 12.6872C147.795 12.812 147.22 12.9576 146.776 13.124L146.322 10.0664C146.786 9.89999 147.462 9.73359 148.349 9.56719C149.237 9.40079 150.185 9.31759 151.194 9.31759Z" fill="#000000"/>
                  <path d="M161.275 26.0408V2.45359L164.937 1.82959V26.0408H161.275Z" fill="#000000"/>
                </g>
                <g id="S v2">
                  <path id="Subtract" fill-rule="evenodd" clip-rule="evenodd" d="M34.9139 18C34.9139 27.9411 27.0981 36 17.4569 36C7.81574 36 0 27.9411 0 18C0 8.05888 7.81574 0 17.4569 0C27.0981 0 34.9139 8.05888 34.9139 18ZM17.3993 3.83814C13.8321 3.83814 10.9403 6.81992 10.9403 10.4981V14.8181C10.9403 18.4964 13.8321 21.4781 17.3993 21.4781C17.9 21.4781 18.3874 21.4194 18.8554 21.3082C19.1404 21.2405 19.2211 20.8896 19.0124 20.6841L18.9718 20.6441L15.2508 16.9795C14.6738 16.4016 14.3153 15.5931 14.3153 14.6981V10.6181C14.3153 8.86187 15.6961 7.43814 17.3993 7.43814C19.1026 7.43814 20.4834 8.86187 20.4834 10.6181V10.792C20.4834 11.724 21.2389 12.4795 22.1709 12.4795C23.1029 12.4795 23.8584 11.724 23.8584 10.792V10.4981C23.8584 6.81992 20.9666 3.83814 17.3993 3.83814ZM23.8574 25.1389C23.8574 28.8171 20.9656 31.7989 17.3983 31.7989C13.8311 31.7989 10.9392 28.8171 10.9392 25.1389V24.8464C10.9392 23.9144 11.6948 23.1589 12.6267 23.1589C13.5587 23.1589 14.3143 23.9144 14.3143 24.8464V25.0189C14.3143 26.7751 15.695 28.1989 17.3983 28.1989C19.1016 28.1989 20.4824 26.7751 20.4824 25.0189V20.9389C20.4824 20.044 20.1239 19.2354 19.5469 18.6575L15.8259 14.993L15.7852 14.9529C15.5765 14.7474 15.6573 14.3965 15.9423 14.3288C16.4102 14.2176 16.8976 14.1589 17.3983 14.1589C20.9656 14.1589 23.8574 17.1407 23.8574 20.8189L23.8574 25.1389Z" fill="#000000"/>
                </g>
                <g id="Secured by Polkadot">
                  <path id="Vector" d="M160.069 35.3722V34.8165L161.208 34.5246L161.716 33.0366H162.431V34.4304H164.906V35.3722H162.431V37.6795C162.431 38.1252 162.525 38.4391 162.714 38.6212C162.908 38.797 163.222 38.8849 163.655 38.8849C163.931 38.8849 164.175 38.8566 164.389 38.8001C164.602 38.7374 164.806 38.6495 165 38.5364V39.5441C164.837 39.6257 164.605 39.7042 164.304 39.7796C164.009 39.8549 163.705 39.8926 163.391 39.8926C162.87 39.8926 162.45 39.8078 162.13 39.6383C161.81 39.4625 161.575 39.2239 161.424 38.9226C161.28 38.6149 161.208 38.2633 161.208 37.8678V35.3722H160.069Z" fill="#656565" fill-opacity="0.6"/>
                  <path id="Vector_2" d="M156.343 39.8928C155.697 39.8928 155.129 39.7767 154.64 39.5444C154.157 39.3058 153.777 38.9762 153.501 38.5555C153.232 38.1349 153.097 37.6483 153.097 37.0958C153.097 36.5371 153.232 36.0505 153.501 35.6361C153.777 35.2155 154.157 34.889 154.64 34.6567C155.129 34.4181 155.697 34.2988 156.343 34.2988C156.989 34.2988 157.554 34.4181 158.037 34.6567C158.526 34.889 158.906 35.2155 159.176 35.6361C159.452 36.0505 159.59 36.5371 159.59 37.0958C159.59 37.6483 159.452 38.1349 159.176 38.5555C158.906 38.9762 158.526 39.3058 158.037 39.5444C157.554 39.7767 156.989 39.8928 156.343 39.8928ZM156.343 38.9322C156.757 38.9322 157.112 38.8569 157.406 38.7062C157.708 38.5555 157.94 38.3452 158.103 38.0752C158.266 37.799 158.348 37.4725 158.348 37.0958C158.348 36.7191 158.266 36.3958 158.103 36.1258C157.94 35.8496 157.708 35.6361 157.406 35.4854C157.112 35.3348 156.757 35.2594 156.343 35.2594C155.935 35.2594 155.581 35.3348 155.28 35.4854C154.979 35.6361 154.747 35.8496 154.583 36.1258C154.42 36.3958 154.339 36.7191 154.339 37.0958C154.339 37.4725 154.42 37.799 154.583 38.0752C154.747 38.3452 154.979 38.5555 155.28 38.7062C155.581 38.8569 155.935 38.9322 156.343 38.9322Z" fill="#656565" fill-opacity="0.6"/>
                  <path id="Vector_3" d="M150.781 39.7608L150.574 37.736L150.847 37.105L150.584 36.3799L150.979 32.5093H152.24L151.76 37.0203L152.033 39.7608H150.781ZM151.139 37.0956C151.02 37.6544 150.822 38.1441 150.546 38.5647C150.27 38.9854 149.928 39.3119 149.52 39.5442C149.119 39.7765 148.67 39.8926 148.175 39.8926C147.654 39.8926 147.193 39.7765 146.791 39.5442C146.39 39.3056 146.076 38.976 145.85 38.5553C145.625 38.1347 145.512 37.6481 145.512 37.0956C145.512 36.5368 145.625 36.0503 145.85 35.6359C146.076 35.2152 146.39 34.8888 146.791 34.6565C147.193 34.4179 147.654 34.2986 148.175 34.2986C148.67 34.2986 149.119 34.4148 149.52 34.6471C149.928 34.8794 150.27 35.2058 150.546 35.6265C150.828 36.0408 151.026 36.5306 151.139 37.0956ZM146.754 37.0956C146.754 37.4535 146.826 37.7705 146.97 38.0468C147.121 38.3167 147.325 38.5302 147.582 38.6872C147.839 38.8378 148.134 38.9132 148.466 38.9132C148.805 38.9132 149.119 38.8378 149.407 38.6872C149.696 38.5302 149.95 38.3167 150.17 38.0468C150.396 37.7705 150.574 37.4535 150.706 37.0956C150.574 36.7377 150.396 36.4238 150.17 36.1539C149.95 35.8776 149.696 35.6641 149.407 35.5135C149.119 35.3565 148.805 35.278 148.466 35.278C148.134 35.278 147.839 35.3565 147.582 35.5135C147.325 35.6641 147.121 35.8776 146.97 36.1539C146.826 36.4238 146.754 36.7377 146.754 37.0956Z" fill="#656565" fill-opacity="0.6"/>
                  <path id="Vector_4" d="M143.167 39.761L142.96 37.7833L143.204 37.0958L142.96 36.4178L143.167 34.4307H144.428L144.145 37.0958L144.428 39.761H143.167ZM143.543 37.0958C143.424 37.6546 143.226 38.1443 142.95 38.565C142.674 38.9856 142.332 39.3121 141.925 39.5444C141.523 39.7767 141.075 39.8928 140.579 39.8928C140.058 39.8928 139.597 39.7767 139.196 39.5444C138.794 39.3058 138.481 38.9762 138.255 38.5555C138.029 38.1349 137.916 37.6483 137.916 37.0958C137.916 36.5371 138.029 36.0505 138.255 35.6361C138.481 35.2155 138.794 34.889 139.196 34.6567C139.597 34.4181 140.058 34.2988 140.579 34.2988C141.075 34.2988 141.523 34.415 141.925 34.6473C142.332 34.8796 142.674 35.206 142.95 35.6267C143.233 36.0411 143.43 36.5308 143.543 37.0958ZM139.158 37.0958C139.158 37.4537 139.23 37.7708 139.375 38.047C139.525 38.317 139.729 38.5304 139.986 38.6874C140.243 38.8381 140.538 38.9134 140.871 38.9134C141.21 38.9134 141.523 38.8381 141.812 38.6874C142.1 38.5304 142.354 38.317 142.574 38.047C142.8 37.7708 142.979 37.4537 143.11 37.0958C142.979 36.738 142.8 36.424 142.574 36.1541C142.354 35.8778 142.1 35.6644 141.812 35.5137C141.523 35.3567 141.21 35.2782 140.871 35.2782C140.538 35.2782 140.243 35.3567 139.986 35.5137C139.729 35.6644 139.525 35.8778 139.375 36.1541C139.23 36.424 139.158 36.738 139.158 37.0958Z" fill="#656565" fill-opacity="0.6"/>
                  <path id="Vector_5" d="M133.021 38.6966L132.664 38.5647L136.051 34.4304H137.463L132.936 39.7608H131.798V32.5093H133.021V38.6966ZM134.536 37.1239L135.392 36.3516L137.623 39.7608H136.183L134.536 37.1239Z" fill="#656565" fill-opacity="0.6"/>
                  <path id="Vector_6" d="M129.092 32.5093H130.315V39.7608H129.092V32.5093Z" fill="#656565" fill-opacity="0.6"/>
                  <path id="Vector_7" d="M124.662 39.8928C124.016 39.8928 123.449 39.7767 122.959 39.5444C122.476 39.3058 122.097 38.9762 121.821 38.5555C121.551 38.1349 121.416 37.6483 121.416 37.0958C121.416 36.5371 121.551 36.0505 121.821 35.6361C122.097 35.2155 122.476 34.889 122.959 34.6567C123.449 34.4181 124.016 34.2988 124.662 34.2988C125.309 34.2988 125.873 34.4181 126.356 34.6567C126.846 34.889 127.225 35.2155 127.495 35.6361C127.771 36.0505 127.909 36.5371 127.909 37.0958C127.909 37.6483 127.771 38.1349 127.495 38.5555C127.225 38.9762 126.846 39.3058 126.356 39.5444C125.873 39.7767 125.309 39.8928 124.662 39.8928ZM124.662 38.9322C125.077 38.9322 125.431 38.8569 125.726 38.7062C126.027 38.5555 126.259 38.3452 126.422 38.0752C126.585 37.799 126.667 37.4725 126.667 37.0958C126.667 36.7191 126.585 36.3958 126.422 36.1258C126.259 35.8496 126.027 35.6361 125.726 35.4854C125.431 35.3348 125.077 35.2594 124.662 35.2594C124.255 35.2594 123.9 35.3348 123.599 35.4854C123.298 35.6361 123.066 35.8496 122.903 36.1258C122.74 36.3958 122.658 36.7191 122.658 37.0958C122.658 37.4725 122.74 37.799 122.903 38.0752C123.066 38.3452 123.298 38.5555 123.599 38.7062C123.9 38.8569 124.255 38.9322 124.662 38.9322Z" fill="#656565" fill-opacity="0.6"/>
                  <path id="Vector_8" d="M118.211 32.6978C118.738 32.6978 119.193 32.7919 119.576 32.9803C119.965 33.1686 120.263 33.4323 120.47 33.7714C120.683 34.1041 120.79 34.4902 120.79 34.9297C120.79 35.3692 120.683 35.7584 120.47 36.0975C120.263 36.4302 119.965 36.6908 119.576 36.8791C119.193 37.0675 118.738 37.1617 118.211 37.1617H115.04V36.0881H118.164C118.591 36.0881 118.923 35.9845 119.162 35.7773C119.406 35.5701 119.529 35.2876 119.529 34.9297C119.529 34.5718 119.406 34.2893 119.162 34.0821C118.923 33.8749 118.591 33.7714 118.164 33.7714H115.163L115.718 33.1498V39.7609H114.476V32.6978H118.211Z" fill="#656565" fill-opacity="0.6"/>
                  <path id="Vector_9" d="M106.314 41.4462C106.001 41.4462 105.715 41.4054 105.458 41.3238C105.207 41.2485 104.972 41.1417 104.752 41.0036V40.0713C104.991 40.2219 105.217 40.3318 105.43 40.4009C105.649 40.4699 105.894 40.5045 106.164 40.5045C106.421 40.5045 106.65 40.4448 106.851 40.3255C107.052 40.2125 107.218 40.0116 107.35 39.7228L109.749 34.4302H111.048L108.291 40.1372C108.14 40.4511 107.961 40.7022 107.754 40.8906C107.553 41.0852 107.331 41.2265 107.086 41.3144C106.848 41.4023 106.59 41.4462 106.314 41.4462ZM106.926 39.591L104.479 34.4302H105.825L108.14 39.591H106.926Z" fill="#656565" fill-opacity="0.6"/>
                  <path id="Vector_10" d="M97.7256 32.5093H98.9489V36.2669L98.7607 36.6153V37.6041L98.9489 37.9997V39.7608H97.7256V32.5093ZM98.4596 37.0956C98.5788 36.5306 98.7764 36.0408 99.0524 35.6265C99.3284 35.2058 99.6672 34.8794 100.069 34.6471C100.476 34.4148 100.928 34.2986 101.424 34.2986C101.944 34.2986 102.406 34.4179 102.807 34.6565C103.209 34.8888 103.522 35.2152 103.748 35.6359C103.974 36.0503 104.087 36.5368 104.087 37.0956C104.087 37.6481 103.974 38.1347 103.748 38.5553C103.522 38.976 103.209 39.3056 102.807 39.5442C102.406 39.7765 101.944 39.8926 101.424 39.8926C100.928 39.8926 100.476 39.7765 100.069 39.5442C99.6672 39.3119 99.3284 38.9854 99.0524 38.5647C98.7764 38.1441 98.5788 37.6544 98.4596 37.0956ZM102.845 37.0956C102.845 36.7377 102.769 36.4238 102.619 36.1539C102.475 35.8776 102.274 35.6641 102.017 35.5135C101.759 35.3565 101.465 35.278 101.132 35.278C100.8 35.278 100.486 35.3565 100.191 35.5135C99.9024 35.6641 99.6484 35.8776 99.4288 36.1539C99.2092 36.4238 99.0305 36.7377 98.8924 37.0956C99.0305 37.4535 99.2092 37.7705 99.4288 38.0468C99.6484 38.3167 99.9024 38.5302 100.191 38.6872C100.486 38.8378 100.8 38.9132 101.132 38.9132C101.465 38.9132 101.759 38.8378 102.017 38.6872C102.274 38.5302 102.475 38.3167 102.619 38.0468C102.769 37.7705 102.845 37.4535 102.845 37.0956Z" fill="#656565" fill-opacity="0.6"/>
                  <path id="Vector_11" d="M92.4298 39.7608L92.2228 37.736L92.4957 37.105L92.2322 36.3799L92.6274 32.5093H93.8884L93.4084 37.0203L93.6813 39.7608H92.4298ZM92.7874 37.0956C92.6682 37.6544 92.4706 38.1441 92.1945 38.5647C91.9185 38.9854 91.5766 39.3119 91.1688 39.5442C90.7674 39.7765 90.3188 39.8926 89.8232 39.8926C89.3025 39.8926 88.8414 39.7765 88.4399 39.5442C88.0384 39.3056 87.7248 38.976 87.4989 38.5553C87.2731 38.1347 87.1602 37.6481 87.1602 37.0956C87.1602 36.5368 87.2731 36.0503 87.4989 35.6359C87.7248 35.2152 88.0384 34.8888 88.4399 34.6565C88.8414 34.4179 89.3025 34.2986 89.8232 34.2986C90.3188 34.2986 90.7674 34.4148 91.1688 34.6471C91.5766 34.8794 91.9185 35.2058 92.1945 35.6265C92.4768 36.0408 92.6745 36.5306 92.7874 37.0956ZM88.4023 37.0956C88.4023 37.4535 88.4744 37.7705 88.6187 38.0468C88.7693 38.3167 88.9732 38.5302 89.2304 38.6872C89.4876 38.8378 89.7824 38.9132 90.1149 38.9132C90.4537 38.9132 90.7674 38.8378 91.0559 38.6872C91.3445 38.5302 91.5986 38.3167 91.8181 38.0468C92.044 37.7705 92.2228 37.4535 92.3545 37.0956C92.2228 36.7377 92.044 36.4238 91.8181 36.1539C91.5986 35.8776 91.3445 35.6641 91.0559 35.5135C90.7674 35.3565 90.4537 35.278 90.1149 35.278C89.7824 35.278 89.4876 35.3565 89.2304 35.5135C88.9732 35.6641 88.7693 35.8776 88.6187 36.1539C88.4744 36.4238 88.4023 36.7377 88.4023 37.0956Z" fill="#656565" fill-opacity="0.6"/>
                  <path id="Vector_12" d="M83.4813 39.8928C82.8602 39.8928 82.3082 39.7767 81.8251 39.5444C81.3421 39.3058 80.9625 38.9762 80.6865 38.5555C80.4105 38.1349 80.2725 37.6452 80.2725 37.0864C80.2725 36.5339 80.4011 36.0505 80.6583 35.6361C80.9218 35.2155 81.2825 34.889 81.7404 34.6567C82.2047 34.4181 82.7348 34.2988 83.3307 34.2988C83.9267 34.2988 84.4411 34.4338 84.874 34.7038C85.3131 34.9675 85.6519 35.341 85.8903 35.8245C86.1287 36.3079 86.2479 36.8761 86.2479 37.529H81.2323V36.5967H85.6362L85.0245 36.9451C85.0057 36.5936 84.921 36.2922 84.7705 36.0411C84.6262 35.7899 84.4286 35.5984 84.1776 35.4666C83.933 35.3285 83.6413 35.2594 83.3025 35.2594C82.9449 35.2594 82.6312 35.3316 82.3615 35.476C82.098 35.6204 81.891 35.8245 81.7404 36.0882C81.5899 36.3456 81.5146 36.6532 81.5146 37.0111C81.5146 37.4066 81.6024 37.7488 81.7781 38.0376C81.96 38.3264 82.2141 38.5493 82.5403 38.7062C82.8728 38.8569 83.2649 38.9322 83.7165 38.9322C84.1243 38.9322 84.5415 38.8695 84.9681 38.7439C85.3947 38.612 85.7711 38.43 86.0973 38.1977V39.0829C85.7711 39.3341 85.3727 39.5318 84.9022 39.6762C84.438 39.8206 83.9643 39.8928 83.4813 39.8928Z" fill="#656565" fill-opacity="0.6"/>
                  <path id="Vector_13" d="M75.582 34.4307H76.8053L77.1253 36.3707V39.761H75.902V36.1352L75.582 34.4307ZM79.826 34.393V35.4666C79.688 35.4289 79.5374 35.4007 79.3743 35.3818C79.2112 35.363 79.0575 35.3536 78.9132 35.3536C78.5682 35.3536 78.2608 35.4289 77.991 35.5796C77.7213 35.7303 77.508 35.9563 77.3511 36.2577C77.2006 36.5528 77.1253 36.9169 77.1253 37.3501L76.843 37.0017C76.8681 36.625 76.9308 36.2734 77.0312 35.9469C77.1378 35.6141 77.2821 35.3253 77.464 35.0805C77.6522 34.8356 77.8812 34.6441 78.151 34.506C78.4207 34.3679 78.7344 34.2988 79.092 34.2988C79.2175 34.2988 79.3461 34.3082 79.4778 34.3271C79.6095 34.3396 79.7256 34.3616 79.826 34.393Z" fill="#656565" fill-opacity="0.6"/>
                  <path id="Vector_14" d="M70.9861 39.8923C70.4968 39.8923 70.0796 39.7919 69.7346 39.591C69.3958 39.3901 69.1355 39.1013 68.9536 38.7246C68.7716 38.3479 68.6807 37.899 68.6807 37.3779V34.4302H69.904V37.1895C69.904 37.742 70.0294 38.1626 70.2804 38.4515C70.5376 38.734 70.9046 38.8752 71.3814 38.8752C71.7264 38.8752 72.0212 38.7999 72.2659 38.6492C72.5168 38.4985 72.7113 38.2851 72.8493 38.0088C72.9873 37.7263 73.0563 37.3998 73.0563 37.0294L73.4798 37.2648C73.4296 37.8111 73.2916 38.2819 73.0658 38.6775C72.8399 39.0667 72.5482 39.3681 72.1906 39.5816C71.833 39.7887 71.4315 39.8923 70.9861 39.8923ZM73.3669 39.7605L73.0563 37.8393V34.4302H74.2797V38.0277L74.5902 39.7605H73.3669Z" fill="#656565" fill-opacity="0.6"/>
                  <path id="Vector_15" d="M67.6394 37.6609C67.5767 38.1004 67.4042 38.4896 67.1219 38.8287C66.8396 39.1614 66.4789 39.422 66.0397 39.6103C65.6006 39.7987 65.1113 39.8928 64.5718 39.8928C63.957 39.8928 63.4143 39.7767 62.9438 39.5444C62.4796 39.3058 62.1157 38.9762 61.8523 38.5555C61.5888 38.1349 61.457 37.6483 61.457 37.0958C61.457 36.5433 61.5888 36.0568 61.8523 35.6361C62.1157 35.2155 62.4796 34.889 62.9438 34.6567C63.4143 34.4181 63.957 34.2988 64.5718 34.2988C65.1113 34.2988 65.6006 34.393 66.0397 34.5814C66.4789 34.7697 66.8396 35.0334 67.1219 35.3724C67.4042 35.7052 67.5767 36.0944 67.6394 36.5402H66.4067C66.3189 36.1384 66.1087 35.8245 65.7763 35.5984C65.4438 35.3724 65.0423 35.2594 64.5718 35.2594C64.1954 35.2594 63.866 35.3348 63.5837 35.4854C63.3014 35.6298 63.0818 35.8402 62.925 36.1164C62.7744 36.3864 62.6992 36.7128 62.6992 37.0958C62.6992 37.4725 62.7744 37.799 62.925 38.0752C63.0818 38.3515 63.3014 38.565 63.5837 38.7156C63.866 38.86 64.1954 38.9322 64.5718 38.9322C65.0485 38.9322 65.4532 38.8161 65.7857 38.5838C66.1182 38.3515 66.3252 38.0439 66.4067 37.6609H67.6394Z" fill="#656565" fill-opacity="0.6"/>
                  <path id="Vector_16" d="M57.7967 39.8928C57.1757 39.8928 56.6236 39.7767 56.1406 39.5444C55.6575 39.3058 55.278 38.9762 55.0019 38.5555C54.7259 38.1349 54.5879 37.6452 54.5879 37.0864C54.5879 36.5339 54.7165 36.0505 54.9737 35.6361C55.2372 35.2155 55.5979 34.889 56.0559 34.6567C56.5201 34.4181 57.0502 34.2988 57.6462 34.2988C58.2421 34.2988 58.7566 34.4338 59.1894 34.7038C59.6286 34.9675 59.9673 35.341 60.2057 35.8245C60.4441 36.3079 60.5633 36.8761 60.5633 37.529H55.5477V36.5967H59.9516L59.34 36.9451C59.3212 36.5936 59.2365 36.2922 59.0859 36.0411C58.9416 35.7899 58.744 35.5984 58.4931 35.4666C58.2484 35.3285 57.9567 35.2594 57.6179 35.2594C57.2604 35.2594 56.9467 35.3316 56.6769 35.476C56.4134 35.6204 56.2064 35.8245 56.0559 36.0882C55.9053 36.3456 55.83 36.6532 55.83 37.0111C55.83 37.4066 55.9178 37.7488 56.0935 38.0376C56.2754 38.3264 56.5295 38.5493 56.8557 38.7062C57.1882 38.8569 57.5803 38.9322 58.032 38.9322C58.4397 38.9322 58.8569 38.8695 59.2835 38.7439C59.7101 38.612 60.0865 38.43 60.4127 38.1977V39.0829C60.0865 39.3341 59.6881 39.5318 59.2176 39.6762C58.7534 39.8206 58.2798 39.8928 57.7967 39.8928Z" fill="#656565" fill-opacity="0.6"/>
                  <path id="Vector_17" d="M46.8555 37.463H48.1164C48.1541 37.7455 48.2701 37.9935 48.4646 38.207C48.6653 38.4205 48.9288 38.5868 49.255 38.7061C49.5813 38.8191 49.9577 38.8756 50.3842 38.8756C51.0179 38.8756 51.5197 38.7783 51.8899 38.5837C52.26 38.3828 52.4451 38.1128 52.4451 37.7738C52.4451 37.4976 52.3384 37.2904 52.1251 37.1522C51.9118 37.0141 51.526 36.9105 50.9677 36.8415L49.4432 36.6437C48.5901 36.5307 47.969 36.3204 47.58 36.0127C47.1974 35.6988 47.006 35.2562 47.006 34.6849C47.006 34.2517 47.1346 33.8781 47.3918 33.5642C47.6553 33.244 48.0255 32.9991 48.5022 32.8296C48.979 32.6538 49.5373 32.5659 50.1772 32.5659C50.8108 32.5659 51.3723 32.6601 51.8616 32.8484C52.3509 33.0368 52.7399 33.3005 53.0285 33.6395C53.3233 33.9723 53.4833 34.3647 53.5084 34.8167H52.2474C52.2161 34.5656 52.1094 34.349 51.9275 34.1669C51.7518 33.9848 51.5135 33.8436 51.2123 33.7431C50.9112 33.6364 50.5568 33.583 50.149 33.583C49.5718 33.583 49.1107 33.6772 48.7657 33.8655C48.4207 34.0539 48.2482 34.3113 48.2482 34.6378C48.2482 34.8889 48.3485 35.0835 48.5493 35.2217C48.7563 35.3535 49.1139 35.454 49.622 35.523L51.1653 35.7396C51.7989 35.8275 52.2976 35.9468 52.6615 36.0975C53.0316 36.2419 53.2951 36.4397 53.4519 36.6908C53.6088 36.9356 53.6872 37.2527 53.6872 37.642C53.6872 38.094 53.5492 38.4895 53.2731 38.8286C52.9971 39.1676 52.6082 39.4313 52.1063 39.6196C51.6107 39.8017 51.0304 39.8927 50.3654 39.8927C49.6879 39.8927 49.0888 39.7923 48.5681 39.5914C48.0537 39.3842 47.6459 39.0985 47.3448 38.7344C47.0437 38.3702 46.8806 37.9465 46.8555 37.463Z" fill="#656565" fill-opacity="0.6"/>
                </g>
              </g>
            </svg>