<svg xmlns="http://www.w3.org/2000/svg" width="187" height="49" fill="none" viewBox="0 0 187 49">
              <path fill="#000000" fill-rule="evenodd" d="M165.396 14.685h4.423c1.137 0 2.059.921 2.059 2.059v6.644c.071-.092.148-.182.229-.271l7.09-7.797h7.751l-7.633 8.425c-1.037 1.147-1.037 2.561 0 3.703l7.57 8.358H179.131V35.8l-7.024-7.724a4.596 4.596 0 0 1-.229-.27v8.023h-6.482V14.685Z" clip-rule="evenodd"></path>
              <path fill="#000000" d="M157.27 15.799c1.197.706 2.128 1.707 2.797 3.001.665 1.294 1.001 2.784 1.001 4.47v12.574h-6.49V24.66c0-1.196-.327-2.173-.979-2.92-.654-.746-1.498-1.121-2.531-1.121-1.335 0-2.375.47-3.122 1.407-.747.94-1.122 2.375-1.122 4.307v9.51h-6.531V15.353h4.572c1.083 0 1.959.876 1.959 1.959a8.315 8.315 0 0 1 2.777-1.898c1.063-.45 2.234-.674 3.51-.674 1.58 0 2.967.354 4.164 1.06h-.005ZM135.171 7.233c.668.68 1 1.484 1 2.416 0 .932-.332 1.755-1 2.397-.668.642-1.502.962-2.51.962-1.008 0-1.839-.32-2.492-.962-.653-.642-.981-1.442-.981-2.397 0-.955.328-1.767.981-2.435.653-.668 1.484-1 2.492-1s1.842.34 2.51 1.019ZM129.413 15.334h4.432c1.16 0 2.1.94 2.1 2.1v18.392h-6.532V15.334ZM118.595 6.477h4.473a2.06 2.06 0 0 1 2.059 2.06v27.332h-6.532V6.477ZM109.496 16.126c1.54.926 2.756 2.214 3.653 3.857.899 1.646 1.346 3.52 1.346 5.613 0 2.093-.449 3.975-1.346 5.632-.899 1.662-2.113 2.947-3.653 3.858a9.643 9.643 0 0 1-5.001 1.366c-2.584 0-4.707-.747-6.369-2.245v8.573h-6.531V15.347h4.9c.9 0 1.631.731 1.631 1.633 1.662-1.499 3.785-2.246 6.369-2.246a9.52 9.52 0 0 1 5.001 1.388v.004Zm-2.797 13.306c.926-.98 1.387-2.256 1.387-3.836s-.461-2.825-1.387-3.817c-.926-.992-2.111-1.49-3.551-1.49-.896 0-1.727.226-2.49.675a5.006 5.006 0 0 0-1.837 1.898c-.46.818-.695 1.728-.695 2.736 0 1.008.232 1.955.695 2.756a5.047 5.047 0 0 0 1.837 1.878c.763.45 1.591.674 2.49.674 1.442 0 2.625-.49 3.551-1.469v-.005ZM80.86 35.84v-1.96a8.307 8.307 0 0 1-2.776 1.898c-1.063.45-2.234.674-3.51.674-1.58 0-2.968-.354-4.164-1.062-1.196-.706-2.132-1.705-2.797-3-.665-1.294-1.001-2.783-1.001-4.47V15.347h4.445c1.13 0 2.046.915 2.046 2.046v9.14c0 1.197.327 2.173.978 2.92.654.747 1.499 1.121 2.532 1.121 1.335 0 2.374-.47 3.121-1.407.747-.94 1.122-2.375 1.122-4.307v-9.51h4.461a2.07 2.07 0 0 1 2.07 2.07v18.421h-6.531l.004-.002Z"></path>
              <path fill="#000000" fill-rule="evenodd" d="M18.91 19.209h9.49s2.756-.23 4.45 2.7c1.693 2.928 4.665 7.848 4.665 7.848l-2.681 4.565-5.215-8.829s-.92-1.748-2.672-1.748l-10.696-.002 2.66-4.537-.002.003Z" clip-rule="evenodd"></path>
              <path fill="#000000" fill-rule="evenodd" d="M55.828 24.206a7.074 7.074 0 0 0-.98-3.247l-1.034-1.75-.547-.926-4.523-7.655-2.486-4.205-1.503-2.545C43.432 1.638 40.99.257 38.34.257H18.156c-.032 0-.066 0-.097.004h-.07s-.003-.002-.005 0h-.005s-.002-.002-.004 0h-.005a7.562 7.562 0 0 0-2.886.645 7.37 7.37 0 0 0-3.346 2.972l-.048.082s-.006.013-.011.02l-1.444 2.443-7.058 11.949-.495.837-.884 1.497-.002.004-.147.25a7.075 7.075 0 0 0-.943 2.786 7.081 7.081 0 0 0 .411 3.35c.025.067.053.132.08.198.125.311.277.615.452.91l1.564 2.648 4.445 7.526 1.144 1.934 1.435 2.43 1.544 2.61c1.274 2.103 3.54 3.435 6.03 3.547.114.006.23.009.345.009H38.34c.116 0 .232-.003.346-.01a7.508 7.508 0 0 0 3.97-1.348 7.29 7.29 0 0 0 2.1-2.264l.97-1.641.533-.904 3.535-5.977.268-.457 3.215-5.444 1.57-2.659c.112-.183.21-.374.3-.565v-.004a7.028 7.028 0 0 0 .682-2.68c.016-.249.016-.499 0-.748ZM45.843 18.2l.595 1.01.009.014 1.562 2.659c.03.05.056.097.084.147l.004.01a5.295 5.295 0 0 1 .143 4.809v.006c-.072.145-.147.29-.231.431l-2.15 3.653-3.093 5.258-.721 1.226-1.533 2.606c-.032.053-.061.105-.095.155l-.028.043-.004.007c-.34.526-.765.98-1.253 1.355a5.569 5.569 0 0 1-3.385 1.144H20.753a5.524 5.524 0 0 1-4.767-2.704l-2.252-3.827-2.4-4.082-.704-1.195-2.14-3.639a5.29 5.29 0 0 1-.67-3.54 5.29 5.29 0 0 1 .67-1.863l1.57-2.673.59-1 3.09-5.256 2.246-3.817a5.476 5.476 0 0 1 2.62-2.273c.67-.279 1.398-.429 2.147-.429h14.994a5.526 5.526 0 0 1 4.765 2.702l2.245 3.817 2.314 3.93v.004l.772 1.312Z" clip-rule="evenodd"></path>
            </svg>