<svg width="224" height="46" viewBox="0 0 224 46" fill="none" xmlns="http://www.w3.org/2000/svg">
<path d="M94.6958 11.1984L90.9629 26.897H90.7656L86.657 11.1984H82.1976L78.0796 26.8626H77.8948L74.1619 11.1984H68.9541L75.4052 33.7458H80.0525L84.3333 19.0023H84.5118L88.8053 33.7458H93.4494L99.9036 11.1984H94.6958Z" fill="black"/>
<path d="M111.935 18.7486C111.212 18.0377 110.369 17.5022 109.402 17.1452C108.437 16.7882 107.398 16.6097 106.28 16.6097C104.62 16.6097 103.176 16.9761 101.949 17.7121C100.718 18.4449 99.7658 19.4689 99.0926 20.7842C98.4193 22.0994 98.0811 23.6245 98.0811 25.3625C98.0811 27.1006 98.4193 28.6883 99.0926 29.991C99.769 31.2938 100.73 32.299 101.983 33.0068C103.236 33.7145 104.729 34.0684 106.471 34.0684C107.864 34.0684 109.095 33.8523 110.166 33.4233C111.234 32.9942 112.107 32.393 112.787 31.6163C113.467 30.8397 113.914 29.9347 114.137 28.8919L109.799 28.6069C109.637 29.0328 109.402 29.3929 109.095 29.6873C108.788 29.9817 108.415 30.2009 107.983 30.3481C107.551 30.4952 107.072 30.5673 106.552 30.5673C105.766 30.5673 105.086 30.4013 104.516 30.0725C103.943 29.7437 103.502 29.2739 103.189 28.6633C102.876 28.0526 102.722 27.3323 102.722 26.4931V26.4805H114.237V25.1934C114.237 23.756 114.033 22.4971 113.633 21.423C113.232 20.3489 112.665 19.4532 111.941 18.7424L111.935 18.7486ZM102.725 23.5807C102.753 22.9731 102.904 22.4157 103.189 21.9115C103.496 21.3635 103.925 20.9282 104.473 20.6025C105.021 20.2768 105.65 20.114 106.361 20.114C107.072 20.114 107.645 20.2612 108.162 20.5587C108.678 20.8562 109.085 21.2664 109.38 21.7863C109.674 22.3061 109.821 22.9042 109.821 23.5807H102.731H102.725Z" fill="black"/>
<path d="M128.687 17.9688C128.017 17.5053 127.249 17.164 126.385 16.9448C125.524 16.7256 124.622 16.616 123.682 16.616C122.333 16.616 121.146 16.8195 120.122 17.2266C119.098 17.6337 118.262 18.2131 117.616 18.9647C116.971 19.7162 116.536 20.6056 116.317 21.6359L120.654 21.9867C120.817 21.4292 121.146 20.9658 121.644 20.5931C122.142 20.2204 122.815 20.0357 123.657 20.0357C124.456 20.0357 125.076 20.2267 125.511 20.6087C125.947 20.9908 126.166 21.5294 126.166 22.2278V22.2935C126.166 22.6537 126.031 22.9261 125.759 23.1078C125.486 23.2894 125.051 23.4303 124.45 23.5211C123.848 23.6119 123.056 23.709 122.073 23.8124C121.237 23.8938 120.438 24.0316 119.677 24.232C118.916 24.4324 118.24 24.7237 117.645 25.112C117.05 25.5003 116.58 26.0139 116.235 26.6527C115.891 27.2916 115.719 28.0807 115.719 29.0202C115.719 30.1351 115.963 31.0651 116.452 31.8105C116.94 32.5558 117.607 33.1163 118.449 33.4953C119.292 33.8742 120.256 34.0621 121.334 34.0621C122.17 34.0621 122.909 33.9493 123.548 33.727C124.187 33.5047 124.731 33.1915 125.189 32.7907C125.643 32.3898 126.006 31.9263 126.278 31.3971H126.41V33.7427H130.857V22.3374C130.857 21.3321 130.663 20.4678 130.274 19.7444C129.886 19.021 129.354 18.4292 128.684 17.9657L128.687 17.9688ZM126.203 27.7018C126.203 28.2968 126.053 28.8292 125.752 29.2989C125.452 29.7687 125.035 30.1413 124.509 30.4169C123.983 30.6925 123.372 30.8303 122.68 30.8303C121.988 30.8303 121.368 30.6643 120.902 30.3292C120.435 29.9941 120.203 29.5087 120.203 28.8699C120.203 28.4283 120.316 28.0619 120.545 27.7644C120.773 27.4669 121.093 27.2289 121.503 27.0536C121.913 26.8782 122.395 26.7498 122.946 26.6684C123.203 26.6308 123.488 26.5901 123.805 26.5431C124.121 26.4961 124.437 26.4398 124.75 26.3771C125.067 26.3145 125.352 26.2456 125.602 26.1673C125.853 26.089 126.056 26.0045 126.203 25.9074V27.7018Z" fill="black"/>
<path d="M143.445 16.8352L139.944 28.9326H139.769L136.255 16.8352H131.301L137.213 33.7458H142.499L148.412 16.8352H143.445Z" fill="black"/>
<path d="M162.126 18.7486C161.402 18.0377 160.56 17.5022 159.592 17.1452C158.628 16.7882 157.585 16.6097 156.47 16.6097C154.81 16.6097 153.367 16.9761 152.139 17.7121C150.911 18.448 149.956 19.4689 149.283 20.7842C148.61 22.0994 148.271 23.6245 148.271 25.3625C148.271 27.1006 148.61 28.6883 149.283 29.991C149.959 31.2938 150.921 32.299 152.173 33.0068C153.426 33.7145 154.92 34.0684 156.661 34.0684C158.055 34.0684 159.285 33.8523 160.356 33.4233C161.424 32.9942 162.298 32.393 162.977 31.6163C163.657 30.8397 164.105 29.9347 164.327 28.8919L159.99 28.6069C159.827 29.0328 159.592 29.3929 159.285 29.6873C158.978 29.9817 158.606 30.2009 158.174 30.3481C157.741 30.4952 157.262 30.5673 156.742 30.5673C155.956 30.5673 155.277 30.4013 154.707 30.0725C154.137 29.7437 153.692 29.2739 153.379 28.6633C153.066 28.0526 152.913 27.3323 152.913 26.4931V26.4805H164.431V25.1934C164.431 23.756 164.227 22.4971 163.826 21.423C163.425 20.3489 162.858 19.4532 162.135 18.7424L162.126 18.7486ZM152.916 23.5807C152.944 22.9731 153.094 22.4157 153.379 21.9115C153.686 21.3635 154.115 20.9282 154.663 20.6025C155.211 20.2768 155.841 20.114 156.551 20.114C157.262 20.114 157.835 20.2612 158.352 20.5587C158.869 20.8562 159.276 21.2664 159.57 21.7863C159.865 22.3061 160.012 22.9042 160.012 23.5807H152.922H152.916Z" fill="black"/>
<path d="M179.75 12.1723C178.547 11.5241 177.088 11.1984 175.378 11.1984H166.481V33.7458H171.248V26.4367H175.256C176.988 26.4367 178.466 26.1173 179.687 25.4784C180.909 24.8396 181.842 23.9471 182.49 22.8041C183.135 21.6579 183.458 20.3364 183.458 18.8395C183.458 17.3426 183.142 16.0179 182.506 14.8717C181.87 13.7224 180.953 12.8237 179.747 12.1754L179.75 12.1723ZM178.103 20.803C177.805 21.3729 177.357 21.8145 176.759 22.1339C176.161 22.4533 175.403 22.613 174.486 22.613H171.248V15.0941H174.464C175.388 15.0941 176.152 15.2506 176.753 15.5607C177.354 15.8738 177.805 16.3091 178.103 16.8697C178.4 17.4302 178.547 18.0847 178.547 18.8363C178.547 19.5879 178.4 20.233 178.103 20.803Z" fill="black"/>
<path d="M197.099 17.9688C196.429 17.5053 195.661 17.164 194.797 16.9448C193.933 16.7256 193.034 16.616 192.094 16.616C190.745 16.616 189.558 16.8195 188.534 17.2266C187.51 17.6337 186.674 18.2131 186.029 18.9647C185.383 19.7162 184.948 20.6056 184.729 21.6359L189.066 21.9867C189.229 21.4292 189.558 20.9658 190.056 20.5931C190.554 20.2204 191.227 20.0357 192.069 20.0357C192.868 20.0357 193.488 20.2267 193.923 20.6087C194.359 20.9908 194.578 21.5294 194.578 22.2278V22.2935C194.578 22.6537 194.443 22.9261 194.171 23.1078C193.898 23.2894 193.463 23.4303 192.862 23.5211C192.26 23.6119 191.468 23.709 190.485 23.8124C189.649 23.8938 188.85 24.0316 188.089 24.232C187.328 24.4324 186.652 24.7237 186.057 25.112C185.462 25.5003 184.992 26.0139 184.648 26.6527C184.303 27.2916 184.131 28.0807 184.131 29.0202C184.131 30.1351 184.375 31.0651 184.864 31.8105C185.352 32.5558 186.019 33.1163 186.862 33.4953C187.704 33.8742 188.669 34.0621 189.746 34.0621C190.582 34.0621 191.321 33.9493 191.96 33.727C192.599 33.5047 193.147 33.1915 193.601 32.7907C194.055 32.3898 194.418 31.9263 194.691 31.3971H194.822V33.7427H199.269V22.3374C199.269 21.3321 199.075 20.4678 198.687 19.7444C198.298 19.021 197.766 18.4292 197.096 17.9657L197.099 17.9688ZM194.615 27.7018C194.615 28.2968 194.465 28.8292 194.164 29.2989C193.864 29.7687 193.447 30.1413 192.921 30.4169C192.395 30.6925 191.784 30.8303 191.092 30.8303C190.4 30.8303 189.78 30.6643 189.314 30.3292C188.847 29.9941 188.615 29.5087 188.615 28.8699C188.615 28.4283 188.728 28.0619 188.957 27.7644C189.185 27.4669 189.505 27.2289 189.915 27.0536C190.325 26.8782 190.807 26.7498 191.359 26.6684C191.615 26.6308 191.9 26.5901 192.217 26.5431C192.533 26.4961 192.849 26.4398 193.162 26.3771C193.476 26.3145 193.764 26.2456 194.014 26.1673C194.265 26.089 194.468 26.0045 194.615 25.9074V27.7018Z" fill="black"/>
<path d="M211.861 16.8352L208.326 29.2551H208.15L204.649 16.8352H199.717L205.783 34.2312L205.507 34.9484C205.3 35.4776 205.034 35.8503 204.709 36.0726C204.383 36.2918 203.998 36.3952 203.553 36.3826C203.108 36.367 202.61 36.2762 202.062 36.107L201.004 39.6082C201.342 39.746 201.768 39.8618 202.288 39.9558C202.805 40.0466 203.362 40.0936 203.957 40.0936C205.116 40.0936 206.108 39.9088 206.929 39.5361C207.749 39.1666 208.432 38.6405 208.971 37.961C209.509 37.2814 209.938 36.486 210.255 35.5778L216.828 16.8383H211.861V16.8352Z" fill="black"/>
<path d="M61.7207 11.1984C61.7207 11.1984 61.6987 11.1984 61.6862 11.1984H30.9246V26.8845H29.9444V11.2015H15.2854V26.8877H14.3052V11.2015H7.46582V33.749H22.1248V18.066H23.105V33.749H37.764V18.066H61.6893V19.0461H38.7442V33.749H45.5836V25.9075H61.6893C65.751 25.9075 69.0423 22.6162 69.0423 18.5545C69.0423 14.4928 65.7698 11.2203 61.7238 11.2015L61.7207 11.1984Z" fill="black"/>
</svg>
