<svg xmlns="http://www.w3.org/2000/svg" viewBox="0 0 513.3753662 75.2287064">



    <path d="M30.0254898,75.0237662C15.0254498,75.9670645-.258,62.1996848,.0033,45.1174246,.1106303,28.5245978,13.6487827,15.160462,30.2416096,15.2677924c16.5307865,.1069288,29.8697071,13.548233,29.8502407,30.0793533,.0643692,17.4162407-15.5010109,30.6430206-30.0663605,29.6766205Zm17.9518318-29.7001419c.1054802-9.8981323-7.8330345-18.0076599-17.7311668-18.1131382-9.8981304-.1054802-18.007659,7.8330326-18.1131382,17.7311649-.1054783,9.8981323,7.8330345,18.0076599,17.7311668,18.1131401,.0608826,.0006485,.1217709,.000988,.1826572,.0010147,9.8274841,.0046921,17.8258858-7.9052505,17.930481-17.7321815Z"></path><path d="M348.4424744,75.0237662c-15.0426941,.913681-30.1820068-12.9757805-29.9212952-29.7742004,.0323181-16.589365,13.5068359-30.0115099,30.0961914-29.9791994,16.5300293,.0321951,29.9276428,13.4141722,29.979126,29.9441309,.1109924,17.7967796-15.7012634,30.8083305-30.1540222,29.809269Zm.0562134-11.9689293c9.8694763,.0143318,17.881897-7.9748535,17.8962402-17.8443451,.0143433-9.8694878-7.9748535-17.8819065-17.8443604-17.8962364-9.8694763-.0143299-17.881897,7.9748535-17.8962097,17.8443451-.0000305,.0058708-.0000305,.0117455-.0000305,.0176163-.0610962,9.8128929,7.8442993,17.8173447,17.657196,17.8784409h.0000305c.0623779,.0003929,.1247559,.0004539,.1871338,.0001793Z"></path><path d="M87.9869995,15.3443858h11.8824539v2.3943005c0,10.960289-.0340729,21.9207191,.0110016,32.8808403,.0351105,8.54319,7.5237808,14.3169975,15.3833923,11.9393196,5.0157776-1.5658493,8.434494-6.2064896,8.4431992-11.4609985,.0243912-11.1035194,.0074234-22.2071304,.007431-33.3106918v-2.4178505h11.9142761c.4141846,.4118595,.2231903,.9414501,.2236938,1.41436,.0119934,11.3184605,.0559998,22.637188-.0032806,33.955349-.063797,12.1745186-7.8454285,21.8724976-19.5782471,23.979599-16.3908463,2.9436188-28.2558594-9.6448288-28.4443207-22.2891998-.1814728-12.175148-.0296478-24.3552303-.0181198-36.5331383,.0375214-.1903639,.0974426-.3756161,.1785202-.5518894Z"></path><path d="M406.3352356,57.1515738h11.7344971c.4374084,.4198418,.377594,1.1059113,.5638428,1.7003212,.9430237,3.1244011,4.2403259,4.8927574,7.3647156,3.9497414,0-.0000038,.0000305-.0000076,.0000305-.0000114,.0513306-.0155029,.102478-.0316925,.1533813-.0485802,3.1523438-1.0694885,4.8408508-4.4919586,3.7713623-7.64431-.019165-.0565376-.0391846-.1127892-.0600586-.1687508-.5596924-1.3360596-1.6853333-2.3534355-3.0710144-2.7756081-3.322937-1.3263702-6.8612366-2.1135406-10.0209351-3.8310013-4.7918701-2.604641-8.9388123-5.9171715-10.1277771-11.5705299-1.7012939-8.0862732,2.3945312-16.2784557,9.8841248-19.7695999,7.5397949-3.5620317,16.5379028-1.5024891,21.7775879,4.9845905,2.6175537,3.1426125,4.0379639,7.1104698,4.009491,11.2003117h-11.9150085c-.1229248-.4360504-.2593994-.9733696-.4258118-1.5012894-.8472595-3.1333961-4.0742493-4.9866638-7.2076416-4.1393909-1.9953308,.5395393-3.5605469,2.0875778-4.1221008,4.0768318-.8016663,2.7135105,.1126709,4.9564915,2.6140137,6.6254597,2.1525879,1.28936,4.4883423,2.2446556,6.9275208,2.8332787,3.230072,.9773216,6.2287292,2.5987091,8.815155,4.7663803,8.3374329,6.8575401,5.8848877,18.688179-.205658,24.3061981-5.5890808,5.1553879-12.0943604,6.3292694-18.9542542,3.7942429-7.039856-2.6015396-10.8968201-8.0991592-11.5907593-15.6486206-.0013733-.3815346,.0271301-.7625885,.0852966-1.1396637Z"></path><path d="M192.8513947,74.9259268h-12.1824799V27.4217059h-14.940918V15.3880354h41.9527893v11.795639h-14.8294067l.0000153,47.7422523Z"></path><path d="M486.500061,27.2996451h-14.9176025V15.3381649h41.7929077v11.9077101h-14.8406067v47.6771069h-12.0346985V27.2996451Z"></path><path class="b" d="M276.1174316,10.9953079c-4.8201904-1.4060669-4.9256592-1.4599609-4.7521973-6.4178467,.0656128-1.8742676-.6689453-2.428894-2.2660522-2.8297729-11.0613403-2.7767334-22.0426636-1.9636841-33.0300903,.4745483-1.5742188,.3493042-2.0303345,.921936-2.0264282,2.5186768,.0192261,22.7796631,.0358276,45.5593262,.0498657,68.3390503,.0003662,.609314-.2254028,1.2748413,.1835938,1.7942505h11.9689941v-24.3892212c2.0412598-.1619873,3.8965454-.380127,5.7572632-.4436035,5.6047363-.1912231,11.1853638-.178772,16.5183105,1.9914551,1.9034424,.7745972,3.1569824,1.7885742,2.7396851,4.1077881-.1032715,1.0655518-.1137085,2.1381226-.03125,3.2055054,8.0657959,2.6533203,16.6828003,3.1641846,25.0055542,1.4823608V11.2463455c-6.5863037,1.8833008-13.5800171,1.7960815-20.1172485-.2510376Zm8.3093262,38.571228c-4.447998-.3050537-8.5198364-1.0289307-12.2770386-3.1107178-.2869873-.1589966-.4772339-.3449707-.6134033-.5456543-.4614868-.6799316-.2119141-1.5535889-.2218628-2.3314209-.0083618-.6542358-.0141602-1.1877441-.039856-1.630188-.0199585-.343811-.0543823-.6286011-.109375-.8733521-.0319214-.1419678-.072937-.2689819-.1223145-.3843384-.0523682-.1221924-.1117554-.2358398-.1885376-.3338623-.0544434-.069397-.1156006-.1334839-.1844482-.1932983-.1376343-.1195679-.3059692-.2219849-.5119629-.3156128-.1029663-.0467529-.2153931-.0913696-.3381348-.1347656-.2755737-.0974731-.6099854-.1897583-.9995728-.2871704-.3044434-.0761108-.6397705-.1550903-1.0247192-.2439575-5.7363892-1.3165894-11.6408081-1.7452393-17.5071411-1.2709961-1.2754517,.0991821-2.5551758,.1437988-4.0413208,.2249756v-12.9083862l.000061-12.4382324v-.000061c5.678894-.5761719,11.3141479-1.0216064,16.8657227-.0062866,.4626465,.0845947,.9246826,.1793823,1.3861084,.2850342,1.3843384,.3170166,2.7632446,.7321777,4.1361084,1.2664185,1.6051025,.4330444,2.6881714,1.8761597,2.7119141,3.4835205,.003418,.2296143-.0148315,.4625854-.0562744,.6964722-.0395508,.7358398-.0664673,1.3347168-.059082,1.8280029,.0084229,.5599365,.0657959,.9780884,.194519,1.3115234,.0610962,.1582031,.1350708,.3013916,.2338257,.4237671,.4876099,.604248,1.4753418,.8317871,3.3736572,1.2702026,1.5313721,.3536987,3.0830078,.6389771,4.6386108,.8643188,1.4783936,.2141113,2.9741821,.3093262,4.6757812,.4779053,.000061,.0115356,.0003052,.0228271,.0003662,.0343628,.0168457,4.2022705,.2071533,8.2966309-.1083984,12.395813,.3911133,4.0602417,.043396,8.1190796,.1867676,12.4459839Z"></path></svg>