<svg width="1201" height="300" viewBox="0 0 1201 300" fill="none" xmlns="http://www.w3.org/2000/svg">
<g clip-path="url(#clip0_0_1)">
<path d="M1149.29 300V244.286H1200.71V300H1149.29Z" fill="#070707"/>
<path d="M979.286 300V0H1051.71C1099.71 0 1123.71 21 1123.71 61.2857V238.714C1123.71 279 1099.71 300 1051.71 300H979.286ZM1051.29 44.1429H1030.71V255.857H1051.29C1066.29 255.857 1072.29 248.143 1072.29 234.857V65.1429C1072.29 51.8571 1066.29 44.1429 1051.29 44.1429Z" fill="#070707"/>
<path d="M867.857 300V0H972V42.8571H919.286V121.714H959.143V164.571H919.286V257.143H972V300H867.857Z" fill="#070707"/>
<path d="M715.714 300V0H788.143C836.143 0 860.143 21 860.143 61.2857V106.286C860.143 135.429 847.714 154.714 822.428 161.143L819.643 155.357C829.928 156.643 831.428 139.5 833.571 153.214L860.143 300H804.857L784.286 167.571H767.143V300H715.714ZM787.714 44.1429H767.143V127.714H787.714C802.714 127.714 808.714 120 808.714 106.714V65.1429C808.714 51.8571 802.714 44.1429 787.714 44.1429Z" fill="#070707"/>
<path d="M604.286 300V0H708.428V42.8571H655.714V121.714H695.571V164.571H655.714V257.143H708.428V300H604.286Z" fill="#070707"/>
<path d="M432.857 0H486.429L513 251.143H516.429L543 0H596.571L553.714 300H475.714L432.857 0Z" fill="#070707"/>
<path d="M375 300V0H426.429V300H375Z" fill="#070707"/>
<path d="M263.571 300V0H315V257.143H367.714V300H263.571Z" fill="#070707"/>
<path d="M152.143 300V0H256.286V42.8571H203.571V121.714H243.429V164.571H203.571V257.143H256.286V300H152.143Z" fill="#070707"/>
<path d="M0 300V0H72.4286C120.429 0 144.429 21 144.429 61.2857V238.714C144.429 279 120.429 300 72.4286 300H0ZM72 44.1429H51.4286V255.857H72C87 255.857 93 248.143 93 234.857V65.1429C93 51.8571 87 44.1429 72 44.1429Z" fill="#070707"/>
</g>
<defs>
<clipPath id="clip0_0_1">
<rect width="1201" height="300" fill="white"/>
</clipPath>
</defs>
</svg>
