<svg width="100" height="100" viewBox="0 0 100 100" fill="none" xmlns="http://www.w3.org/2000/svg">
<mask id="mask0_1051_12" style="mask-type:luminance" maskUnits="userSpaceOnUse" x="0" y="0" width="100" height="100">
<path d="M100 0H0V100H100V0Z" fill="white"/>
</mask>
<g mask="url(#mask0_1051_12)">
<path fill-rule="evenodd" clip-rule="evenodd" d="M73.1856 17.2944C73.8144 15.7782 74.136 14.1523 74.1324 12.5109C74.1333 10.0415 73.4032 7.62725 72.0329 5.57275C70.6631 3.51824 68.7153 1.91568 66.4356 0.967351C64.1554 0.0190266 61.6455 -0.232538 59.2225 0.244416C56.8 0.721369 54.5725 1.90546 52.8221 3.64719L50.0018 6.27356L47.2009 3.65582C44.8554 1.31302 41.6751 -0.00201795 38.3599 2.32436e-06C35.0447 0.0020226 31.866 1.32094 29.5232 3.66659C27.1805 6.01225 25.8654 9.19248 25.8674 12.5077C25.8695 15.8229 27.1883 19.0016 29.534 21.3444L48.7739 40.8687C48.9342 41.0315 49.1252 41.1609 49.336 41.2491C49.5468 41.3374 49.7734 41.3829 50.0018 41.3829C50.2306 41.3829 50.4572 41.3374 50.6676 41.2491C50.8784 41.1609 51.0694 41.0315 51.2302 40.8687L70.4698 21.3444C71.6338 20.1872 72.5572 18.8106 73.1856 17.2944ZM26.8143 82.7054C26.1856 84.2221 25.8638 85.8473 25.8674 87.4892C25.8664 89.9586 26.5969 92.373 27.9668 94.4275C29.3368 96.482 31.2846 98.0847 33.5646 99.0324C35.8446 99.9811 38.3545 100.232 40.7773 99.7554C43.2001 99.2784 45.4275 98.0946 47.1779 96.3532L49.9982 93.7266L52.7991 96.3441C55.1446 98.6869 58.3252 100.002 61.6401 100C64.9554 99.9982 68.1338 98.6788 70.477 96.3333C72.8194 93.9878 74.1347 90.8077 74.1324 87.4923C74.1306 84.177 72.8117 80.9987 70.4662 78.6554L51.2261 59.1315C51.0662 58.9685 50.8743 58.8392 50.6635 58.7509C50.4532 58.6626 50.2266 58.6171 49.9982 58.6171C49.7694 58.6171 49.5432 58.6626 49.3324 58.7509C49.1216 58.8392 48.9302 58.9685 48.7698 59.1315L29.5301 78.6554C28.366 79.8131 27.443 81.1896 26.8143 82.7054ZM87.4892 74.1329C85.8473 74.1365 84.2221 73.8144 82.7054 73.186C81.1896 72.5577 79.8131 71.6338 78.6554 70.4698L59.1315 51.2306C58.9685 51.0698 58.8392 50.8784 58.7509 50.668C58.6626 50.4572 58.6171 50.2311 58.6171 50.0018C58.6171 49.7739 58.6626 49.5473 58.7509 49.3365C58.8392 49.1257 58.9685 48.9347 59.1315 48.7743L78.6554 29.5343C80.9987 27.1886 84.177 25.8697 87.4923 25.8677C90.8077 25.8657 93.9878 27.1807 96.3333 29.5235C98.6788 31.8663 99.9982 35.045 100 38.3602C100.002 41.6755 98.6869 44.8557 96.3441 47.2014L93.7266 50.0018L96.3532 52.8225C98.0946 54.573 99.2784 56.8 99.7554 59.223C100.232 61.6459 99.9811 64.1554 99.0324 66.4356C98.0847 68.7153 96.482 70.6635 94.4275 72.0333C92.373 73.4036 89.9586 74.1338 87.4892 74.1329ZM17.2944 26.814C15.7782 26.1853 14.1523 25.8635 12.5109 25.8672C10.0415 25.866 7.62721 26.5966 5.57275 27.9665C3.51823 29.3364 1.91567 31.2844 0.967351 33.5644C0.0190262 35.8444 -0.232538 38.3541 0.244415 40.777C0.721369 43.1999 1.90546 45.427 3.64719 47.1775L6.27356 49.9977L3.65582 52.7986C1.31301 55.1446 -0.002018 58.3243 2.32447e-06 61.6401C0.00202264 64.955 1.32093 68.1333 3.66659 70.4766C6.01225 72.8194 9.19248 74.1347 12.5077 74.1324C15.8229 74.1306 19.0016 72.8117 21.3444 70.4653L40.8686 51.2261C41.0315 51.0653 41.1609 50.8743 41.2491 50.6635C41.3374 50.4527 41.3828 50.2266 41.3828 49.9977C41.3828 49.7694 41.3374 49.5428 41.2491 49.332C41.1609 49.1212 41.0315 48.9302 40.8686 48.7698L21.3444 29.5299C20.1872 28.3658 18.8106 27.4427 17.2944 26.814Z" fill="url(#paint0_linear_1051_12)"/>
</g>
<defs>
<linearGradient id="paint0_linear_1051_12" x1="11" y1="100" x2="93" y2="-8" gradientUnits="userSpaceOnUse">
<stop stop-color="#BDD7F9"/>
<stop offset="1" stop-color="#1E60DB"/>
</linearGradient>
</defs>
</svg>
