<svg width="91" height="100" viewBox="0 0 91 100" fill="none" xmlns="http://www.w3.org/2000/svg">
<path fill-rule="evenodd" clip-rule="evenodd" d="M60.4898 23.5336C61.3677 21.4805 61.8551 19.2151 61.8551 16.8341C61.8551 7.53689 54.4303 0 45.2718 0C36.1136 0 28.6891 7.53689 28.6891 16.8341C28.6891 19.2151 29.176 21.4805 30.0542 23.5336C27.0401 19.3215 22.1495 16.5829 16.6288 16.5829C7.47028 16.5829 0.0458984 24.1199 0.0458984 33.4171C0.0458984 41.7206 5.96803 48.6198 13.7585 50C5.96803 51.3802 0.0458984 58.2793 0.0458984 66.5829C0.0458984 75.8802 7.47028 83.4171 16.6288 83.4171C22.1495 83.4171 27.0401 80.6784 30.0542 76.4667C29.176 78.5194 28.6891 80.7851 28.6891 83.1662C28.6891 92.4631 36.1136 100 45.2718 100C54.4303 100 61.8551 92.4631 61.8551 83.1662C61.8551 80.7851 61.3677 78.5194 60.4898 76.4667C63.5038 80.6784 68.3943 83.4171 73.9155 83.4171C83.074 83.4171 90.4984 75.8802 90.4984 66.5829C90.4984 58.2793 84.5758 51.3802 76.7853 50C84.5758 48.6198 90.4984 41.7206 90.4984 33.4171C90.4984 24.1199 83.074 16.5829 73.9155 16.5829C68.3943 16.5829 63.5038 19.3215 60.4898 23.5336ZM58.6974 73.2824C57.8195 71.2297 57.3326 68.964 57.3326 66.5829C57.3326 58.2793 63.2542 51.3802 71.0447 50C63.2542 48.6198 57.3326 41.7206 57.3326 33.4171C57.3326 31.0362 57.8195 28.7707 58.6974 26.7177C55.6835 30.9297 50.7929 33.6683 45.2718 33.6683C39.7514 33.6683 34.8607 30.9297 31.8466 26.7177C32.7248 28.7707 33.2118 31.0362 33.2118 33.4171C33.2118 41.7206 27.2896 48.6198 19.4992 50C27.2896 51.3802 33.2118 58.2793 33.2118 66.5829C33.2118 68.964 32.7248 71.2297 31.8466 73.2824C34.8607 69.0707 39.7514 66.3315 45.2718 66.3315C50.7929 66.3315 55.6835 69.0707 58.6974 73.2824Z" fill="url(#paint0_linear_1051_5)"/>
<defs>
<linearGradient id="paint0_linear_1051_5" x1="80.0961" y1="-1.25434e-05" x2="10.9777" y2="69.3396" gradientUnits="userSpaceOnUse">
<stop stop-color="#1E60DB"/>
<stop offset="1" stop-color="#BDD7F9"/>
</linearGradient>
</defs>
</svg>
