<svg width="100" height="100" viewBox="0 0 100 100" fill="none" xmlns="http://www.w3.org/2000/svg">
<path d="M0 0.000108955C0.380557 -0.000554733 0.761071 0.00314354 1.14154 0.0112036C1.52203 0.0192602 1.90236 0.031677 2.28255 0.0484539C2.66273 0.0652274 3.04268 0.0863559 3.42238 0.11184C3.80209 0.137323 4.18143 0.167153 4.56042 0.20133C4.93944 0.235506 5.31803 0.274022 5.6962 0.316878C6.07433 0.359731 6.45191 0.406911 6.82895 0.458418C7.20602 0.509926 7.58244 0.565748 7.95821 0.625884C8.33398 0.686019 8.70902 0.750452 9.08332 0.819181C9.45762 0.887914 9.83108 0.960925 10.2037 1.03821C10.5763 1.1155 10.948 1.19705 11.3188 1.28286C11.6895 1.36867 12.0593 1.45872 12.4279 1.55302C12.7966 1.64727 13.1642 1.74576 13.5306 1.8485C13.8971 1.9512 14.2623 2.05809 14.6263 2.16917C14.9902 2.28022 15.3529 2.39544 15.7143 2.51484C16.0756 2.63423 16.4355 2.75775 16.794 2.88539C17.1526 3.01303 17.5096 3.14476 17.865 3.28057C18.2206 3.41639 18.5745 3.55626 18.9267 3.70019C19.279 3.84411 19.6296 3.99206 19.9785 4.14402C20.3274 4.29598 20.6745 4.45193 21.0199 4.61187C21.3652 4.77177 21.7086 4.93562 22.0502 5.10343C22.3917 5.27123 22.7314 5.44292 23.069 5.61849C23.4066 5.79406 23.7422 5.97347 24.0757 6.15674C24.4093 6.34001 24.7406 6.52707 25.0699 6.71793C25.3991 6.9088 25.7261 7.1034 26.0509 7.30176C26.3757 7.50011 26.6981 7.70216 27.0183 7.9079C27.3384 8.11365 27.6561 8.32303 27.9715 8.53606C28.2868 8.74909 28.5997 8.9657 28.9101 9.18588C29.2205 9.40609 29.5283 9.62983 29.8335 9.85709C30.1388 10.0843 30.4414 10.315 30.7413 10.5492C31.0413 10.7834 31.3385 11.021 31.6331 11.262C31.9276 11.503 32.2193 11.7473 32.5083 11.995C32.7972 12.2427 33.0832 12.4937 33.3664 12.7479C33.6178 12.9728 33.867 13.2001 34.1139 13.43C34.3608 13.6599 34.6054 13.8923 34.8476 14.1271C35.0897 14.3619 35.3295 14.5992 35.5668 14.8389C35.8042 15.0786 36.0391 15.3207 36.2716 15.5651C36.504 15.8096 36.734 16.0564 36.9614 16.3055C37.1889 16.5547 37.4138 16.8061 37.6361 17.0598C37.8585 17.3135 38.0783 17.5694 38.2954 17.8275C38.5126 18.0857 38.7271 18.346 38.939 18.6085C39.1509 18.871 39.3601 19.1356 39.5666 19.4024C39.7731 19.6691 39.9769 19.9379 40.178 20.2087C40.3791 20.4796 40.5774 20.7525 40.7729 21.0274C40.9684 21.3023 41.1612 21.5791 41.3511 21.8579C41.541 22.1367 41.7281 22.4174 41.9123 22.7C42.0966 22.9826 42.2779 23.267 42.4563 23.5533C42.6348 23.8396 42.8104 24.1276 42.983 24.4174C43.1556 24.7073 43.3252 24.9988 43.492 25.2921C43.6587 25.5854 43.8224 25.8803 43.9832 26.1769C44.1439 26.4735 44.3016 26.7717 44.4563 27.0714C44.611 27.3712 44.7626 27.6726 44.9112 27.9754C45.0597 28.2783 45.2052 28.5826 45.3476 28.8884C45.49 29.1943 45.6293 29.5015 45.7655 29.8101C45.9017 30.1187 46.0347 30.4287 46.1646 30.74C46.2945 31.0514 46.4212 31.364 46.5448 31.6779C46.6683 31.9918 46.7886 32.3069 46.9058 32.6233C47.023 32.9396 47.1369 33.2571 47.2476 33.5758C47.3583 33.8944 47.4658 34.2141 47.57 34.535C47.6743 34.8558 47.7753 35.1777 47.8731 35.5006C47.9706 35.8235 48.065 36.1473 48.1563 36.4721C48.2473 36.7969 48.3351 37.1225 48.4196 37.4491C48.5044 37.7757 48.5857 38.1031 48.6633 38.4314C48.7413 38.7596 48.8159 39.0885 48.8871 39.4183C48.9582 39.748 49.0261 40.0784 49.0908 40.4095C49.2643 41.3002 49.4129 42.1949 49.5367 43.0938C49.6609 43.9926 49.7601 44.8942 49.8344 45.7985C49.8806 46.3626 49.9298 46.9281 49.9519 47.4938C49.9632 47.7847 49.9221 48.1701 49.9811 48.4492C50.0094 48.5832 50.0217 48.4446 49.996 48.5847C50.0725 47.7457 50.0858 46.8971 50.151 46.0564C50.27 44.5407 50.4575 43.0335 50.7134 41.5348C50.7668 41.2218 50.8232 40.9094 50.8828 40.5975C50.9423 40.2856 51.0047 39.9742 51.0701 39.6635C51.1354 39.3528 51.2037 39.0427 51.2748 38.7333C51.346 38.4239 51.4202 38.1152 51.4975 37.8072C51.5748 37.4992 51.6549 37.192 51.7377 36.8856C51.8208 36.5791 51.9069 36.2735 51.9958 35.9687C52.0848 35.6639 52.1766 35.3599 52.2714 35.0569C52.3661 34.7538 52.4638 34.4517 52.5644 34.1505C52.6646 33.8493 52.7679 33.5491 52.8743 33.2499C52.9807 32.9507 53.0899 32.6525 53.2017 32.3554C53.3136 32.0583 53.4284 31.7622 53.5461 31.4673C53.6634 31.1724 53.7838 30.8786 53.9073 30.586C54.0305 30.2933 54.1564 30.0019 54.285 29.7117C54.414 29.4215 54.5455 29.1325 54.6796 28.8448C54.8141 28.5571 54.9513 28.2707 55.0912 27.9856C55.2308 27.7006 55.3733 27.4168 55.5187 27.1345C55.6637 26.8521 55.8117 26.5712 55.9626 26.2916C56.1131 26.0121 56.2662 25.734 56.4218 25.4575C56.5778 25.1809 56.7364 24.9058 56.8975 24.6322C57.0587 24.3586 57.2225 24.0866 57.3891 23.8162C57.5554 23.5458 57.7242 23.2769 57.8956 23.0097C58.0674 22.7425 58.2415 22.477 58.418 22.2131C58.5946 21.9492 58.7736 21.6871 58.9553 21.4266C59.137 21.1662 59.321 20.9075 59.5075 20.6505C59.6939 20.3936 59.8829 20.1385 60.0745 19.8851C60.2661 19.6318 60.4599 19.3804 60.6559 19.1308C60.8523 18.8812 61.0509 18.6334 61.2517 18.3876C61.4529 18.1418 61.6562 17.898 61.8618 17.656C62.0675 17.4141 62.2753 17.1741 62.4853 16.9362C62.6957 16.6983 62.9084 16.4624 63.1232 16.2285C63.3377 15.9946 63.5546 15.7627 63.7739 15.533C63.9932 15.3033 64.2145 15.0757 64.4379 14.8502C64.7273 14.5566 65.0204 14.2667 65.317 13.9803C65.6136 13.6941 65.9136 13.4115 66.217 13.1327C66.5205 12.8538 66.8275 12.5788 67.1382 12.3075C67.4485 12.0363 67.7622 11.769 68.0793 11.5055C68.3961 11.2421 68.7163 10.9826 69.0399 10.7272C69.3632 10.4716 69.6898 10.2202 70.0196 9.97281C70.3494 9.7254 70.6821 9.48213 71.0177 9.24299C71.3536 9.00386 71.6923 8.76894 72.0337 8.53822C72.3755 8.3075 72.7198 8.08104 73.0667 7.85885C73.414 7.63665 73.7639 7.41881 74.1167 7.20533C74.4694 6.99183 74.8246 6.78273 75.1825 6.57805C75.54 6.37336 75.9002 6.17314 76.2632 5.97739C76.6258 5.78164 76.9909 5.59042 77.3583 5.40373C77.7261 5.21704 78.0959 5.03494 78.4677 4.85742C78.84 4.67993 79.2142 4.50706 79.5905 4.33882C79.9665 4.1706 80.3447 4.00707 80.7251 3.84823C81.1056 3.68939 81.4879 3.53531 81.8721 3.38598C82.2562 3.23661 82.6423 3.09204 83.0303 2.95225C83.4179 2.8125 83.8074 2.67758 84.1987 2.54747C84.5898 2.41737 84.9823 2.29212 85.3764 2.17174C85.7709 2.05138 86.1665 1.93594 86.5634 1.8254C86.9606 1.71483 87.3591 1.60923 87.759 1.50859C88.1586 1.40793 88.5594 1.31225 88.9614 1.22154C89.3637 1.13083 89.7669 1.04513 90.1709 0.964421C90.5753 0.883718 90.9805 0.808042 91.3866 0.737393C91.7927 0.666745 92.1996 0.601144 92.6074 0.540591C93.0152 0.480041 93.4235 0.424558 93.8323 0.374142C94.2415 0.323726 94.6511 0.278393 95.0613 0.238144C95.4719 0.197892 95.8826 0.162737 96.2934 0.132679C96.7046 0.102618 97.116 0.0776632 97.5276 0.0578141C97.9395 0.0379651 98.3515 0.0232253 98.7638 0.0135949C99.1757 0.00396804 99.5878 -0.00054611 100 5.25776e-05V51.2593V99.8536H0V0.000108955ZM4.51131 50.0062C5.1973 50.232 6.9536 50.3156 7.7958 50.45C8.93625 50.6314 10.0693 50.8508 11.1951 51.1084C12.3209 51.3657 13.4367 51.6604 14.5427 51.9926C14.9464 52.1158 15.3484 52.2439 15.7488 52.377C16.1491 52.5104 16.5478 52.6488 16.9447 52.7921C17.3416 52.9355 17.7366 53.0838 18.1297 53.237C18.5229 53.3903 18.914 53.5485 19.3032 53.7117C19.6924 53.8749 20.0794 54.0429 20.4643 54.2156C20.8492 54.3887 21.2319 54.5666 21.6124 54.7493C21.9928 54.9317 22.3708 55.119 22.7465 55.3112C23.1222 55.5035 23.4955 55.7004 23.8662 55.9019C24.2369 56.1034 24.605 56.3095 24.9706 56.5202C25.3361 56.7313 25.6989 56.9468 26.059 57.1668C26.4191 57.3868 26.7764 57.6112 27.1308 57.8401C27.4852 58.0693 27.8367 58.3028 28.1852 58.5405C28.5338 58.7783 28.8792 59.0205 29.2217 59.2672C29.5641 59.5138 29.9033 59.7648 30.2394 60.02C30.5755 60.2752 30.9083 60.5345 31.2378 60.7979C31.5674 61.0617 31.8935 61.3294 32.2163 61.601C32.5391 61.873 32.8584 62.1489 33.1742 62.4288C33.4901 62.7086 33.8023 62.9924 34.111 63.2801C34.4196 63.5678 34.7246 63.8595 35.0259 64.155C35.3272 64.4503 35.6247 64.7495 35.9185 65.0526C36.2122 65.3553 36.5021 65.6619 36.7881 65.9722C37.0741 66.2824 37.3562 66.5963 37.6343 66.9138C37.9123 67.2313 38.1864 67.5522 38.4564 67.8765C38.7263 68.2008 38.9922 68.5284 39.254 68.8592C39.5157 69.1904 39.7732 69.5246 40.0264 69.8619C40.2797 70.1996 40.5287 70.5403 40.7734 70.8841C41.0181 71.2279 41.2584 71.5747 41.4943 71.9243C41.7303 72.2743 41.9618 72.6272 42.1888 72.983C42.4158 73.3388 42.6383 73.6973 42.8563 74.0585C43.0743 74.4198 43.2877 74.7838 43.4965 75.1506C43.7053 75.5173 43.9094 75.8866 44.1089 76.2585C44.3083 76.6303 44.5031 77.0046 44.6931 77.3813C44.7948 77.5838 44.8952 77.7868 44.9941 77.9904C45.0931 78.1943 45.1907 78.3987 45.2868 78.6036C45.383 78.8089 45.4778 79.0147 45.5712 79.2209C45.6645 79.4272 45.7565 79.6342 45.8471 79.8419C45.9377 80.0495 46.0268 80.2577 46.1146 80.4664C46.2023 80.6754 46.2886 80.885 46.3735 81.095C46.4583 81.3051 46.5418 81.5156 46.6238 81.7267C46.7059 81.9378 46.7865 82.1494 46.8656 82.3615C46.9447 82.5739 47.0224 82.7867 47.0987 82.9999C47.1749 83.2133 47.2497 83.4272 47.3231 83.6413C47.3964 83.8558 47.4683 84.0707 47.5387 84.2858C47.6091 84.501 47.6781 84.7167 47.7456 84.9329C47.8131 85.1492 47.879 85.3659 47.9434 85.5831C48.008 85.8004 48.0712 86.0179 48.1327 86.2359C48.1943 86.4538 48.2544 86.6722 48.3129 86.8912C48.3717 87.1098 48.4288 87.3289 48.4842 87.5485C48.54 87.7682 48.5942 87.9881 48.6469 88.2085C48.6996 88.4288 48.7507 88.6494 48.8004 88.8704C48.85 89.0914 48.898 89.3128 48.9446 89.5345C48.9911 89.7561 49.0362 89.9782 49.08 90.2005C49.1235 90.4226 49.1656 90.6451 49.2063 90.8682C49.247 91.0909 49.286 91.3139 49.3233 91.5373C49.3609 91.7607 49.397 91.9845 49.4315 92.2085C49.4661 92.4323 49.4991 92.6564 49.5306 92.8808C49.5621 93.1049 49.592 93.3293 49.6204 93.5541C49.6488 93.7788 49.6756 94.0037 49.701 94.2289C49.7263 94.454 49.75 94.6792 49.7723 94.9047C49.7945 95.1301 49.8152 95.3558 49.8344 95.5816C49.8539 95.807 49.8717 96.0328 49.8877 96.2589C49.9038 96.4847 49.9184 96.7107 49.9314 96.9368C49.9444 97.1629 49.956 97.3892 49.9663 97.6157C49.9762 97.8419 49.9846 98.0682 49.9914 98.2946L49.9565 98.2367L49.9929 98.3619C50.0802 97.5521 50.0858 96.7269 50.151 95.9136C50.2718 94.383 50.4616 92.8609 50.7206 91.3475C52.3129 82.0592 56.643 72.9876 63.1124 66.0984C63.3297 65.8606 63.5491 65.6249 63.7708 65.3912C63.9925 65.1576 64.2164 64.9262 64.4425 64.6969C64.669 64.4677 64.8975 64.2407 65.1281 64.016C65.3587 63.7912 65.5915 63.5687 65.8265 63.3484C66.0612 63.128 66.2981 62.9099 66.5373 62.6941C66.7764 62.4785 67.0176 62.2652 67.2608 62.0542C67.5041 61.8431 67.7494 61.6344 67.9967 61.4281C68.244 61.2218 68.4934 61.0179 68.7449 60.8164C68.996 60.6149 69.2492 60.416 69.5044 60.2196C69.7596 60.0229 70.0165 59.8288 70.2751 59.6372C70.5341 59.4456 70.795 59.2566 71.0577 59.0701C71.3201 58.8833 71.5844 58.6993 71.8505 58.518C72.1167 58.3367 72.3846 58.1579 72.6541 57.9817C72.9237 57.8052 73.1948 57.6316 73.4675 57.4609C73.7405 57.2898 74.015 57.1215 74.2911 56.9559C74.5675 56.79 74.8453 56.627 75.1245 56.4669C75.404 56.3064 75.6849 56.1489 75.9671 55.9942C76.2497 55.8393 76.5336 55.687 76.819 55.5375C77.1043 55.3884 77.391 55.2418 77.679 55.0977C77.9671 54.9541 78.2567 54.8131 78.5478 54.6749C78.8386 54.5367 79.1308 54.4014 79.4243 54.269C79.7178 54.1363 80.0125 54.0064 80.3085 53.8795C80.6047 53.7529 80.902 53.6291 81.2003 53.508C81.4986 53.3869 81.7982 53.2687 82.0989 53.1534C82.3996 53.0381 82.7015 52.9257 83.0046 52.8162C83.3074 52.7068 83.6113 52.6002 83.9165 52.4965C84.2213 52.3932 84.5272 52.2926 84.834 52.1948C85.1409 52.0973 85.4488 52.0027 85.7577 51.911C86.0663 51.8193 86.3759 51.7307 86.6865 51.6452C86.9968 51.5593 87.308 51.4765 87.62 51.3968C87.932 51.3175 88.2448 51.2408 88.5585 51.1669C88.8723 51.0934 89.1865 51.0229 89.5012 50.9555C90.948 50.6469 92.4057 50.4042 93.8744 50.2273C94.3172 50.1735 94.7847 50.0893 95.2296 50.0749C95.245 50.0749 95.2599 50.0749 95.2753 50.0749L95.2999 50.0267L95.3056 50.057L95.3584 50.0462L95.3261 50.0036C92.7988 50.0523 90.2597 50.0031 87.7308 50.0031H72.435H27.2943C19.7029 50.0036 12.1018 49.9205 4.51131 50.0062Z" fill="url(#paint0_linear_1047_68)"/>
<defs>
<linearGradient id="paint0_linear_1047_68" x1="50" y1="0" x2="50" y2="99.8536" gradientUnits="userSpaceOnUse">
<stop stop-color="#1E60DB"/>
<stop offset="1" stop-color="#BDD7F9"/>
</linearGradient>
</defs>
</svg>
